<svg width="1357" height="1357" viewBox="0 0 1357 1357" fill="none" xmlns="http://www.w3.org/2000/svg">
<path d="M0.05428 402.777L0 1209.88L237.964 1357V1343.06C237.964 1343.06 237.828 1178.08 238.181 1095.58C238.208 1087.43 235.847 1082.94 229.116 1079.13C225.696 1077.19 221.652 1072.28 221.652 1068.66C221.245 981.648 221.327 901.601 221.327 901.601L302.692 853.324C302.692 853.324 523.205 985.485 667.481 1072.39C675.759 1077.38 681.512 1077.13 689.682 1072.22C831.542 986.727 973.62 901.629 1115.67 816.446C1120.77 813.37 1125.96 810.464 1132.39 806.712C1132.71 811.17 1133.2 814.555 1133.2 817.97C1133.26 900.049 1133.15 982.128 1133.39 1064.21C1133.42 1071.6 1132.36 1077.13 1125.17 1079.67C1117.35 1082.41 1116.4 1088.33 1116.4 1096.06C1116.62 1182.66 1116.54 1356.83 1116.54 1356.83L1356.89 1209.83L1357 400.492C1347.01 406.953 1337.19 413.725 1326.98 419.848C1114.12 547.495 901.184 675.029 688.433 802.874C680.291 807.784 674.483 807.953 666.206 802.987C625.74 778.665 577.811 749.857 526.516 719.046C578.923 687.585 627.992 658.128 669.11 633.44L667.861 364.094C566.602 425.124 392.852 529.352 301.688 584.006C274.684 567.782 248.331 551.953 223.226 536.886C363.812 452.578 549.883 340.985 669.082 269.374L667.861 0C526 85.4932 241.872 255.774 241.872 255.774L0.05428 402.777Z" fill="white" fill-opacity="0.02"/>
</svg>

