<svg width="190" height="19" viewBox="0 0 190 19" fill="none" xmlns="http://www.w3.org/2000/svg">
<path d="M9.45 8.025L16.375 0.449999H18V18H13.425V9.925L9.7 13.825H9.175L5.45 9.925V18H0.875V0.449999H2.5L9.45 8.025ZM31.899 15.825H25.349L24.349 18H19.574V17.375L27.599 0.325H29.699L37.649 17.375V18H32.924L31.899 15.825ZM28.624 7.775L26.824 12H30.449L28.624 7.775ZM53.0289 18.05L43.8289 8.975V18H39.2539V0.425H40.6789L49.8039 9.05V0.499999H54.3789V18.05H53.0289ZM65.101 18.225C63.1343 18.225 61.451 17.6917 60.051 16.625C58.6676 15.5583 57.976 14.0917 57.976 12.225V0.499999H62.551V12.125C62.551 12.8083 62.801 13.325 63.301 13.675C63.801 14.025 64.4093 14.2 65.126 14.2C65.8093 14.2 66.401 14.025 66.901 13.675C67.401 13.325 67.651 12.8083 67.651 12.125V0.499999H72.176V12.225C72.176 14.0917 71.4843 15.5583 70.101 16.625C68.7176 17.6917 67.051 18.225 65.101 18.225ZM85.9523 8.35V12.35H80.3523V18H75.7773V0.499999H86.7023V4.475H80.3523V8.35H85.9523ZM98.818 15.825H92.268L91.268 18H86.493V17.375L94.518 0.325H96.618L104.568 17.375V18H99.843L98.818 15.825ZM95.543 7.775L93.743 12H97.368L95.543 7.775ZM104.858 9.275C104.858 7.825 105.108 6.51667 105.608 5.35C106.124 4.18333 106.808 3.24167 107.658 2.525C108.508 1.80833 109.458 1.26667 110.508 0.9C111.558 0.516666 112.658 0.325 113.808 0.325C115.074 0.325 116.266 0.541666 117.383 0.974999C118.516 1.40833 119.516 2.14167 120.383 3.175C121.266 4.20833 121.816 5.46667 122.033 6.95H117.633C117.049 5.28333 115.774 4.45 113.808 4.45C112.491 4.45 111.433 4.89167 110.633 5.775C109.833 6.64167 109.433 7.8 109.433 9.25C109.433 10.55 109.833 11.6667 110.633 12.6C111.449 13.5333 112.508 14 113.808 14C114.791 14 115.624 13.7667 116.308 13.3C116.991 12.8333 117.449 12.1417 117.683 11.225H122.083C121.866 12.8083 121.324 14.1417 120.458 15.225C119.591 16.2917 118.591 17.05 117.458 17.5C116.341 17.95 115.124 18.175 113.808 18.175C112.674 18.175 111.574 17.9833 110.508 17.6C109.458 17.2167 108.508 16.6667 107.658 15.95C106.808 15.2333 106.124 14.3 105.608 13.15C105.108 11.9833 104.858 10.6917 104.858 9.275ZM127.652 4.5H123.352V0.499999H136.352V4.5H132.077V18H127.652V4.5ZM155.424 9.25C155.424 11.9167 154.583 14.1 152.899 15.8C151.233 17.4833 149.074 18.325 146.424 18.325C145.241 18.325 144.116 18.1333 143.049 17.75C141.999 17.3667 141.049 16.8083 140.199 16.075C139.366 15.3417 138.699 14.3917 138.199 13.225C137.716 12.0417 137.474 10.7167 137.474 9.25C137.474 7.31667 137.916 5.65 138.799 4.25C139.683 2.83333 140.791 1.8 142.124 1.15C143.474 0.483332 144.933 0.149999 146.499 0.149999C147.633 0.149999 148.724 0.349999 149.774 0.749999C150.841 1.13333 151.791 1.69167 152.624 2.425C153.474 3.15833 154.149 4.11667 154.649 5.3C155.166 6.46667 155.424 7.78333 155.424 9.25ZM142.049 9.25C142.049 10.7333 142.483 11.9 143.349 12.75C144.216 13.5833 145.249 14 146.449 14C147.633 14 148.658 13.5833 149.524 12.75C150.408 11.9 150.849 10.7333 150.849 9.25C150.849 7.76667 150.416 6.60833 149.549 5.775C148.683 4.925 147.666 4.5 146.499 4.5C145.266 4.5 144.216 4.91667 143.349 5.75C142.483 6.56667 142.049 7.73333 142.049 9.25ZM169.673 11.775L173.098 17.325V17.975H168.248L165.248 12.5H162.848V17.975H158.273V0.474999C158.29 0.474999 159.573 0.474999 162.123 0.474999C164.69 0.458333 165.973 0.458333 165.973 0.474999C167.956 0.474999 169.498 1.09167 170.598 2.325C171.715 3.55833 172.273 5.00833 172.273 6.675C172.24 8.90833 171.373 10.6083 169.673 11.775ZM162.773 8.775H165.948C166.548 8.775 167.015 8.55833 167.348 8.125C167.681 7.69167 167.848 7.175 167.848 6.575C167.848 5.975 167.681 5.475 167.348 5.075C167.031 4.65833 166.565 4.45 165.948 4.45H162.773V8.775ZM181.119 6.3H181.319L184.494 0.499999H189.344V1.175L183.494 11.075V18H178.919V11.075L173.044 1.175V0.499999H177.944L181.119 6.3Z" fill="#1B1B1E"/>
</svg>
