<svg width="60" height="60" viewBox="0 0 60 60" fill="none" xmlns="http://www.w3.org/2000/svg">
<rect width="60" height="46" fill="white"/>
<rect x="0.5" y="45.5" width="59" height="14" stroke="white"/>
<path d="M12.2415 16.0629L12.2401 37.1892L18.4688 41.04V40.6752C18.4688 40.6752 18.4653 36.3569 18.4745 34.1973C18.4752 33.9839 18.4134 33.8664 18.2372 33.7667C18.1477 33.7158 18.0419 33.5873 18.0419 33.4927C18.0312 31.215 18.0334 29.1198 18.0334 29.1198L20.1631 27.8561C20.1631 27.8561 25.9351 31.3155 29.7116 33.5902C29.9283 33.721 30.0789 33.7143 30.2927 33.5858C34.006 31.348 37.7249 29.1205 41.4432 26.8908C41.5767 26.8103 41.7124 26.7342 41.8808 26.636C41.8893 26.7527 41.9021 26.8413 41.9021 26.9307C41.9035 29.0791 41.9007 31.2276 41.9071 33.3761C41.9078 33.5696 41.8801 33.7143 41.6918 33.7808C41.4872 33.8524 41.4624 34.0075 41.4624 34.2099C41.468 36.4765 41.4659 41.0356 41.4659 41.0356L47.7572 37.1877L47.7601 16.0031C47.4986 16.1722 47.2415 16.3494 46.9743 16.5097C41.4027 19.8509 35.8289 23.1892 30.2601 26.5356C30.0469 26.6641 29.8949 26.6685 29.6782 26.5385C28.619 25.9019 27.3645 25.1478 26.0218 24.3413C27.3936 23.5178 28.678 22.7468 29.7543 22.1005L29.7216 15.0503C27.0711 16.6478 22.5231 19.376 20.1369 20.8066C19.43 20.3819 18.7402 19.9676 18.0831 19.5732C21.763 17.3664 26.6335 14.4454 29.7535 12.571L29.7216 5.52002C26.0083 7.75784 18.5711 12.215 18.5711 12.215L12.2415 16.0629Z" fill="#1B1B1E"/>
<path d="M13.9273 51.25L12.8805 51.5352C12.719 50.8581 12.3505 50.5195 11.775 50.5195C11.426 50.5195 11.1591 50.6016 10.9742 50.7656C10.818 50.9062 10.7398 51.0938 10.7398 51.3281C10.7398 51.6198 10.8297 51.8411 11.0094 51.9922C11.1734 52.1276 11.4638 52.2526 11.8805 52.3672L12.2086 52.4648C12.9352 52.6628 13.4326 52.9219 13.7008 53.2422C13.9169 53.5026 14.025 53.8542 14.025 54.2969C14.025 54.8984 13.8115 55.362 13.3844 55.6875C12.9937 55.987 12.4599 56.1367 11.7828 56.1367C11.1292 56.1367 10.5992 55.9857 10.193 55.6836C9.82578 55.4102 9.57448 55.0247 9.43906 54.5273L10.4703 54.1992C10.5562 54.582 10.7242 54.8711 10.9742 55.0664C11.1904 55.2357 11.4521 55.3203 11.7594 55.3203C12.551 55.3203 12.9469 55.0247 12.9469 54.4336C12.9469 54.1367 12.8596 53.9154 12.6852 53.7695C12.5159 53.6263 12.1995 53.4896 11.7359 53.3594L11.4156 53.2656C10.7255 53.0599 10.2516 52.7982 9.99375 52.4805C9.7776 52.2148 9.66953 51.8542 9.66953 51.3984C9.66953 50.875 9.87266 50.4557 10.2789 50.1406C10.6513 49.849 11.1396 49.7031 11.7437 49.7031C12.8714 49.7031 13.5992 50.2188 13.9273 51.25ZM21.3931 49.8086V50.6797H19.5455V56.0156H18.4556V50.6797H16.6236V49.8086H21.3931ZM29.1206 49.8086V53.8711C29.1206 54.6523 28.881 55.2396 28.4019 55.6328C27.9982 55.9635 27.4566 56.1289 26.7769 56.1289C25.9878 56.1289 25.3862 55.9154 24.9722 55.4883C24.5972 55.1003 24.4097 54.5612 24.4097 53.8711V49.8086H25.4878V53.8555C25.4878 54.8216 25.9253 55.3047 26.8003 55.3047C27.6753 55.3047 28.1128 54.8216 28.1128 53.8555V49.8086H29.1206ZM32.6372 49.8086H34.7153C35.7257 49.8086 36.4822 50.0924 36.9848 50.6602C37.4406 51.1784 37.6684 51.9154 37.6684 52.8711C37.6684 53.9596 37.3481 54.7786 36.7075 55.3281C36.1736 55.7865 35.4614 56.0156 34.5708 56.0156H32.6372V49.8086ZM33.7075 50.6406V55.1836H34.5473C35.2192 55.1836 35.7218 54.9753 36.0552 54.5586C36.3677 54.1706 36.5239 53.6107 36.5239 52.8789C36.5239 51.3867 35.8833 50.6406 34.602 50.6406H33.7075ZM41.9467 49.8086V56.0156H40.8569V49.8086H41.9467ZM47.7953 49.7031C48.6625 49.7031 49.3344 50.0182 49.8109 50.6484C50.238 51.2135 50.4516 51.9674 50.4516 52.9102C50.4516 53.9909 50.1742 54.8203 49.6195 55.3984C49.1508 55.8906 48.5401 56.1367 47.7875 56.1367C46.9203 56.1367 46.2484 55.8203 45.7719 55.1875C45.3448 54.6224 45.1312 53.8698 45.1312 52.9297C45.1312 51.849 45.4099 51.0182 45.9672 50.4375C46.4359 49.9479 47.0453 49.7031 47.7953 49.7031ZM47.7953 50.5352C47.2927 50.5352 46.9086 50.7604 46.643 51.2109C46.3982 51.625 46.2758 52.1953 46.2758 52.9219C46.2758 53.7474 46.4333 54.3685 46.7484 54.7852C47.0115 55.1315 47.3604 55.3047 47.7953 55.3047C48.2953 55.3047 48.6781 55.0781 48.9437 54.625C49.1859 54.2109 49.307 53.6432 49.307 52.9219C49.307 52.0911 49.1508 51.4688 48.8383 51.0547C48.5779 50.7083 48.2302 50.5352 47.7953 50.5352Z" fill="white"/>
</svg>
