<svg width="20" height="21" viewBox="0 0 20 21" fill="none" xmlns="http://www.w3.org/2000/svg">
<path d="M4.47044 0.501726L4.49706 0.503444C5.02095 0.546866 5.47597 0.807216 5.89133 1.21305C6.68068 1.98398 8.37566 4.23367 8.50363 4.8459C8.64526 5.52891 8.49383 5.97252 8.04241 6.75724L7.93299 6.95064C7.72584 7.32898 7.69417 7.48521 7.75831 7.66409C8.74394 10.0763 10.4259 11.758 12.8106 12.732C13.0364 12.8138 13.2069 12.7669 13.6842 12.4931L13.9332 12.3522C14.6042 11.9842 15.0294 11.8679 15.6565 11.9985C16.2666 12.1264 18.5176 13.8224 19.2873 14.6108C19.6926 15.0257 19.9535 15.4816 19.999 16.0399C20.0469 17.3972 18.3908 19.3082 17.3805 19.8828C16.2317 20.7046 14.7737 20.691 13.139 19.9301C8.86409 18.1513 2.325 11.6539 0.582383 7.38432L0.478067 7.14549C-0.183628 5.56399 -0.16929 4.19766 0.588982 3.16758C1.28088 2.02176 3.14635 0.440489 4.47044 0.501726ZM4.387 1.963L4.30146 1.96849C3.62187 2.05878 2.25903 3.23207 1.80517 3.97834L1.72676 4.09502C1.33578 4.73205 1.3811 5.60687 1.92544 6.8047L2.02947 7.04822C3.785 10.9882 9.86332 16.9822 13.7284 18.5911L13.9412 18.6858C15.0595 19.1598 15.906 19.1388 16.5913 18.6528L16.642 18.6202C16.8541 18.4729 17.3431 18.0285 17.7198 17.5938C18.2489 16.9833 18.5486 16.4239 18.5389 16.1262C18.5283 15.9988 18.4301 15.8271 18.2407 15.6332C17.6685 15.0472 15.5874 13.4791 15.3574 13.4309C15.1399 13.3856 14.9614 13.4465 14.4732 13.7273L14.2276 13.8652C13.5084 14.2531 13.0014 14.3573 12.2851 14.0973C9.50911 12.9643 7.53832 10.9938 6.39328 8.18981C6.12206 7.4401 6.26806 6.90968 6.73971 6.08764L6.85209 5.88993C7.06635 5.50305 7.11169 5.33891 7.07132 5.1442C7.02298 4.91294 5.4559 2.83301 4.86908 2.25988C4.67476 2.07003 4.50402 1.97233 4.37624 1.96174L4.387 1.963Z" fill="white"/>
</svg>
