<svg width="53" height="58" viewBox="0 0 53 58" fill="none" xmlns="http://www.w3.org/2000/svg">
<path fill-rule="evenodd" clip-rule="evenodd" d="M9.50944 6.78259L24.0259 1.34347C30.3924 -1.04197 36.487 -0.448304 38.9309 5.99697L52.1816 41.9851C52.328 42.3905 52.3748 42.8257 52.318 43.2527C52.2298 43.9475 51.8668 44.5749 51.3123 44.9906C50.7578 45.4064 50.0594 45.5749 49.3775 45.4574L31.3036 43.4778L18.8726 56.887C17.9524 57.9501 16.3594 58.0674 15.2884 57.151C14.9661 56.8575 14.7175 56.4902 14.5636 56.0799L8.24597 38.9215C8.23891 38.903 8.23193 38.8844 8.22505 38.8657L1.31267 20.0921C-1.06904 13.6235 3.1637 9.16026 9.50944 6.78259Z" fill="url(#paint0_linear)"/>
<defs>
<linearGradient id="paint0_linear" x1="16.8091" y1="4.04749" x2="34.5447" y2="51.3818" gradientUnits="userSpaceOnUse">
<stop stop-color="white"/>
<stop offset="1" stop-color="white"/>
</linearGradient>
</defs>
</svg>

