<svg width="61" height="65" viewBox="0 0 61 65" fill="none" xmlns="http://www.w3.org/2000/svg">
<g filter="url(#filter0_b)">
<mask id="path-1-outside-1" maskUnits="userSpaceOnUse" x="0.360657" y="0.849274" width="61" height="65" fill="black">
<rect fill="white" x="0.360657" y="0.849274" width="61" height="65"/>
<path d="M59.1671 40.2895C58.5678 39.3572 57.7162 38.425 56.6123 37.8345C55.7292 37.3995 55.1615 36.6848 54.6568 35.8457C53.0483 33.1732 53.9945 29.6617 56.6754 28.0769C59.8295 26.3056 60.8388 22.359 59.0094 19.2826L56.8962 15.6157C55.0984 12.5392 51.1558 11.4516 48.0333 13.2539C45.2578 14.7456 41.6937 13.7511 40.0851 11.1097C39.5805 10.2396 39.2966 9.30736 39.3597 8.3751C39.4543 7.16316 39.0758 6.01337 38.5081 5.08111C37.3411 3.15444 35.2279 1.84927 32.8939 1.84927H28.4467C26.1442 1.91142 24.031 3.15444 22.864 5.08111C22.2647 6.01337 21.9178 7.16316 21.9809 8.3751C22.044 9.30736 21.7601 10.2396 21.2555 11.1097C19.6469 13.7511 16.0828 14.7456 13.3388 13.2539C10.1847 11.4516 6.27373 12.5392 4.44438 15.6157L2.33117 19.2826C0.533358 22.359 1.54265 26.3056 4.66516 28.0769C7.3461 29.6617 8.29232 33.1732 6.71529 35.8457C6.1791 36.6848 5.61138 37.3995 4.72824 37.8345C3.65587 38.425 2.70965 39.3572 2.205 40.2895C1.03801 42.2162 1.10109 44.6401 2.26808 46.66L4.44438 50.389C5.61138 52.3778 7.78767 53.6208 10.0586 53.6208C11.131 53.6208 12.3926 53.3101 13.4019 52.6886C14.1904 52.1603 15.1366 51.9738 16.1774 51.9738C19.2999 51.9738 21.9178 54.5531 21.9809 57.6296C21.9809 61.2032 24.8826 64 28.5413 64H32.8308C36.458 64 39.3597 61.2032 39.3597 57.6296C39.4543 54.5531 42.0722 51.9738 45.1947 51.9738C46.204 51.9738 47.1502 52.1603 47.9702 52.6886C48.9795 53.3101 50.2096 53.6208 51.3135 53.6208C53.5529 53.6208 55.7292 52.3778 56.8962 50.389L59.104 46.66C60.2395 44.5779 60.3341 42.2162 59.1671 40.2895Z"/>
</mask>
<path d="M59.1671 40.2895C58.5678 39.3572 57.7162 38.425 56.6123 37.8345C55.7292 37.3995 55.1615 36.6848 54.6568 35.8457C53.0483 33.1732 53.9945 29.6617 56.6754 28.0769C59.8295 26.3056 60.8388 22.359 59.0094 19.2826L56.8962 15.6157C55.0984 12.5392 51.1558 11.4516 48.0333 13.2539C45.2578 14.7456 41.6937 13.7511 40.0851 11.1097C39.5805 10.2396 39.2966 9.30736 39.3597 8.3751C39.4543 7.16316 39.0758 6.01337 38.5081 5.08111C37.3411 3.15444 35.2279 1.84927 32.8939 1.84927H28.4467C26.1442 1.91142 24.031 3.15444 22.864 5.08111C22.2647 6.01337 21.9178 7.16316 21.9809 8.3751C22.044 9.30736 21.7601 10.2396 21.2555 11.1097C19.6469 13.7511 16.0828 14.7456 13.3388 13.2539C10.1847 11.4516 6.27373 12.5392 4.44438 15.6157L2.33117 19.2826C0.533358 22.359 1.54265 26.3056 4.66516 28.0769C7.3461 29.6617 8.29232 33.1732 6.71529 35.8457C6.1791 36.6848 5.61138 37.3995 4.72824 37.8345C3.65587 38.425 2.70965 39.3572 2.205 40.2895C1.03801 42.2162 1.10109 44.6401 2.26808 46.66L4.44438 50.389C5.61138 52.3778 7.78767 53.6208 10.0586 53.6208C11.131 53.6208 12.3926 53.3101 13.4019 52.6886C14.1904 52.1603 15.1366 51.9738 16.1774 51.9738C19.2999 51.9738 21.9178 54.5531 21.9809 57.6296C21.9809 61.2032 24.8826 64 28.5413 64H32.8308C36.458 64 39.3597 61.2032 39.3597 57.6296C39.4543 54.5531 42.0722 51.9738 45.1947 51.9738C46.204 51.9738 47.1502 52.1603 47.9702 52.6886C48.9795 53.3101 50.2096 53.6208 51.3135 53.6208C53.5529 53.6208 55.7292 52.3778 56.8962 50.389L59.104 46.66C60.2395 44.5779 60.3341 42.2162 59.1671 40.2895Z" fill="#C0C0C0" fill-opacity="0.35"/>
<path d="M58.3259 40.8302C58.6246 41.2948 59.2433 41.4293 59.7078 41.1307C60.1724 40.8321 60.3069 40.2134 60.0083 39.7488L58.3259 40.8302ZM56.6123 37.8345L57.084 36.9528C57.0741 36.9475 57.0642 36.9424 57.0542 36.9375L56.6123 37.8345ZM54.6568 35.8457L55.5138 35.3303L55.5136 35.33L54.6568 35.8457ZM56.6754 28.0769L56.1857 27.205C56.1793 27.2086 56.1729 27.2123 56.1665 27.216L56.6754 28.0769ZM59.0094 19.2826L58.1429 19.7819L58.1499 19.7937L59.0094 19.2826ZM56.8962 15.6157L57.7626 15.1163L57.7596 15.1111L56.8962 15.6157ZM48.0333 13.2539L48.5067 14.1348C48.5156 14.13 48.5245 14.1251 48.5332 14.12L48.0333 13.2539ZM40.0851 11.1097L39.2201 11.6114C39.2237 11.6176 39.2273 11.6238 39.231 11.6299L40.0851 11.1097ZM39.3597 8.3751L38.3627 8.29726L38.362 8.30759L39.3597 8.3751ZM38.5081 5.08111L37.6528 5.59919L37.654 5.60124L38.5081 5.08111ZM28.4467 1.84927V0.849274C28.4377 0.849274 28.4287 0.849395 28.4197 0.849638L28.4467 1.84927ZM22.864 5.08111L23.7052 5.62184C23.71 5.61436 23.7147 5.6068 23.7193 5.59919L22.864 5.08111ZM21.9809 8.3751L20.9822 8.42708C20.9825 8.43226 20.9828 8.43744 20.9832 8.44261L21.9809 8.3751ZM21.2555 11.1097L22.1095 11.6299C22.1133 11.6238 22.1169 11.6176 22.1205 11.6114L21.2555 11.1097ZM13.3388 13.2539L12.8426 14.1222C12.8488 14.1257 12.855 14.1291 12.8612 14.1325L13.3388 13.2539ZM4.44438 15.6157L3.58477 15.1045L3.57796 15.1163L4.44438 15.6157ZM2.33117 19.2826L3.19457 19.7871L3.19759 19.7819L2.33117 19.2826ZM4.66516 28.0769L5.17405 27.216C5.16891 27.213 5.16375 27.21 5.15857 27.2071L4.66516 28.0769ZM6.71529 35.8457L7.55793 36.3842C7.5643 36.3742 7.57051 36.3641 7.57652 36.3539L6.71529 35.8457ZM4.72824 37.8345L4.28633 36.9375C4.2727 36.9442 4.25924 36.9512 4.24593 36.9585L4.72824 37.8345ZM2.205 40.2895L3.06034 40.8076C3.0687 40.7938 3.07674 40.7798 3.08442 40.7655L2.205 40.2895ZM2.26808 46.66L1.4022 47.1602L1.40441 47.164L2.26808 46.66ZM4.44438 50.389L3.5807 50.893L3.58189 50.8951L4.44438 50.389ZM13.4019 52.6886L13.9262 53.5401C13.9371 53.5334 13.9479 53.5265 13.9585 53.5194L13.4019 52.6886ZM21.9809 57.6296H22.9809C22.9809 57.6227 22.9808 57.6159 22.9807 57.6091L21.9809 57.6296ZM39.3597 57.6296L38.3602 57.5988C38.3598 57.6091 38.3597 57.6193 38.3597 57.6296H39.3597ZM47.9702 52.6886L47.4287 53.5292C47.4344 53.5329 47.4401 53.5365 47.4459 53.5401L47.9702 52.6886ZM56.8962 50.389L56.0357 49.8795L56.0337 49.8829L56.8962 50.389ZM59.104 46.66L59.9645 47.1694C59.9705 47.1593 59.9763 47.1491 59.982 47.1387L59.104 46.66ZM60.0224 39.7714C59.7363 39.299 59.1214 39.148 58.649 39.4342C58.1766 39.7203 58.0257 40.3352 58.3118 40.8076L60.0224 39.7714ZM60.0083 39.7488C59.3467 38.7195 58.3801 37.646 57.084 36.9528L56.1407 38.7163C57.0524 39.204 57.789 39.995 58.3259 40.8302L60.0083 39.7488ZM57.0542 36.9375C56.4259 36.628 55.9813 36.1076 55.5138 35.3303L53.7999 36.3611C54.3417 37.2619 55.0325 38.171 56.1704 38.7316L57.0542 36.9375ZM55.5136 35.33C54.2006 33.1487 54.9659 30.2491 57.1843 28.9377L56.1665 27.216C53.023 29.0744 51.8959 33.1978 53.8 36.3614L55.5136 35.33ZM57.1651 28.9488C60.8169 26.8979 61.9809 22.3232 59.8689 18.7715L58.1499 19.7937C59.6966 22.3948 58.842 25.7132 56.1857 27.205L57.1651 28.9488ZM59.8758 18.7832L57.7626 15.1163L56.0298 16.115L58.143 19.7819L59.8758 18.7832ZM57.7596 15.1111C55.6879 11.566 51.1388 10.3068 47.5334 12.3879L48.5332 14.12C51.1729 12.5963 54.5089 13.5124 56.0328 16.1202L57.7596 15.1111ZM47.5599 12.3731C45.2538 13.6124 42.2722 12.7785 40.9392 10.5896L39.231 11.6299C41.1152 14.7238 45.2617 15.8787 48.5067 14.1348L47.5599 12.3731ZM40.9502 10.608C40.516 9.85938 40.3113 9.12466 40.3574 8.44261L38.362 8.30759C38.282 9.49006 38.645 10.6199 39.2201 11.6114L40.9502 10.608ZM40.3567 8.45294C40.4713 6.98476 40.0119 5.6278 39.3622 4.56099L37.654 5.60124C38.1398 6.39894 38.4373 7.34157 38.3627 8.29726L40.3567 8.45294ZM39.3634 4.56303C38.0296 2.36087 35.6045 0.849274 32.8939 0.849274V2.84927C34.8513 2.84927 36.6526 3.94801 37.6528 5.59919L39.3634 4.56303ZM32.8939 0.849274H28.4467V2.84927H32.8939V0.849274ZM28.4197 0.849638C25.7771 0.920971 23.3519 2.34551 22.0087 4.56303L23.7193 5.59919C24.7102 3.96337 26.5114 2.90188 28.4737 2.84891L28.4197 0.849638ZM22.0228 4.54038C21.3183 5.6364 20.9075 6.99165 20.9822 8.42708L22.9795 8.32312C22.9281 7.33467 23.2112 6.39035 23.7052 5.62184L22.0228 4.54038ZM20.9832 8.44261C21.0293 9.12466 20.8246 9.85938 20.3904 10.608L22.1205 11.6114C22.6956 10.6199 23.0586 9.49006 22.9786 8.30759L20.9832 8.44261ZM20.4014 10.5896C19.0664 12.7818 16.0856 13.6089 13.8164 12.3753L12.8612 14.1325C16.08 15.8822 20.2274 14.7205 22.1095 11.6299L20.4014 10.5896ZM13.8349 12.3857C10.1983 10.3075 5.68772 11.5681 3.58485 15.1046L5.3039 16.1268C6.85973 13.5103 10.1712 12.5956 12.8426 14.1222L13.8349 12.3857ZM3.57796 15.1163L1.46474 18.7832L3.19759 19.7819L5.3108 16.115L3.57796 15.1163ZM1.46778 18.778C-0.605115 22.3252 0.55405 26.8945 4.17175 28.9467L5.15857 27.2071C2.53126 25.7167 1.67183 22.3928 3.19455 19.7871L1.46778 18.778ZM4.15628 28.9377C6.37464 30.2491 7.14319 33.1529 5.85406 35.3375L7.57652 36.3539C9.44145 33.1936 8.31756 29.0743 5.17405 27.216L4.15628 28.9377ZM5.87266 35.3072C5.36309 36.1046 4.91738 36.6266 4.28633 36.9375L5.17016 38.7316C6.30538 38.1724 6.99512 37.2649 7.55793 36.3842L5.87266 35.3072ZM4.24593 36.9585C3.02502 37.6308 1.93154 38.694 1.32558 39.8135L3.08442 40.7655C3.48777 40.0204 4.28671 39.2192 5.21055 38.7105L4.24593 36.9585ZM1.34967 39.7714C-0.0257748 42.0422 0.0722109 44.8582 1.40221 47.1602L3.13396 46.1597C2.12996 44.4219 2.10179 42.3901 3.06034 40.8076L1.34967 39.7714ZM1.40441 47.164L3.5807 50.893L5.30805 49.885L3.13176 46.1559L1.40441 47.164ZM3.58189 50.8951C4.92741 53.1881 7.43092 54.6208 10.0586 54.6208V52.6208C8.14442 52.6208 6.29534 51.5675 5.30686 49.8829L3.58189 50.8951ZM10.0586 54.6208C11.2987 54.6208 12.745 54.2674 13.9262 53.5401L12.8775 51.8371C12.0401 52.3527 10.9633 52.6208 10.0586 52.6208V54.6208ZM13.9585 53.5194C14.522 53.1418 15.247 52.9738 16.1774 52.9738V50.9738C15.0262 50.9738 13.8588 51.1788 12.8453 51.8578L13.9585 53.5194ZM16.1774 52.9738C18.7574 52.9738 20.9292 55.1195 20.9811 57.6501L22.9807 57.6091C22.9064 53.9867 19.8425 50.9738 16.1774 50.9738V52.9738ZM20.9809 57.6296C20.9809 61.7851 24.3604 65 28.5413 65V63C25.4048 63 22.9809 60.6213 22.9809 57.6296H20.9809ZM28.5413 65H32.8308V63H28.5413V65ZM32.8308 65C36.9834 65 40.3597 61.782 40.3597 57.6296H38.3597C38.3597 60.6244 35.9326 63 32.8308 63V65ZM40.3592 57.6603C40.4374 55.1196 42.6168 52.9738 45.1947 52.9738V50.9738C41.5276 50.9738 38.4713 53.9866 38.3602 57.5988L40.3592 57.6603ZM45.1947 52.9738C46.085 52.9738 46.8222 53.1385 47.4287 53.5292L48.5118 51.8479C47.4782 51.1821 46.323 50.9738 45.1947 50.9738V52.9738ZM47.4459 53.5401C48.6251 54.2662 50.0394 54.6208 51.3135 54.6208V52.6208C50.3798 52.6208 49.334 52.3539 48.4946 51.8371L47.4459 53.5401ZM51.3135 54.6208C53.9123 54.6208 56.4145 53.1858 57.7587 50.8951L56.0337 49.8829C55.0439 51.5698 53.1935 52.6208 51.3135 52.6208V54.6208ZM57.7567 50.8985L59.9645 47.1694L58.2435 46.1505L56.0357 49.8795L57.7567 50.8985ZM59.982 47.1387C61.2569 44.801 61.4052 42.0543 60.0224 39.7714L58.3118 40.8076C59.263 42.378 59.2221 44.3548 58.2261 46.1812L59.982 47.1387Z" fill="url(#paint0_linear)" mask="url(#path-1-outside-1)"/>
</g>
<g filter="url(#filter1_bd)">
<path d="M30.7254 41.4767C25.7735 41.4767 21.7679 37.5923 21.7679 32.7135C21.7679 27.8346 25.7735 23.9191 30.7254 23.9191C35.6772 23.9191 39.5883 27.8346 39.5883 32.7135C39.5883 37.5923 35.6772 41.4767 30.7254 41.4767Z" fill="url(#paint1_linear)"/>
<path d="M30.7254 41.2767C25.8793 41.2767 21.9679 37.4772 21.9679 32.7135C21.9679 27.9488 25.8802 24.1191 30.7254 24.1191C35.5677 24.1191 39.3883 27.946 39.3883 32.7135C39.3883 37.48 35.5687 41.2767 30.7254 41.2767Z" stroke="url(#paint2_linear)" stroke-width="0.4"/>
</g>
<defs>
<filter id="filter0_b" x="-23.6394" y="-23.1507" width="108.639" height="112.151" filterUnits="userSpaceOnUse" color-interpolation-filters="sRGB">
<feFlood flood-opacity="0" result="BackgroundImageFix"/>
<feGaussianBlur in="BackgroundImage" stdDeviation="12"/>
<feComposite in2="SourceAlpha" operator="in" result="effect1_backgroundBlur"/>
<feBlend mode="normal" in="SourceGraphic" in2="effect1_backgroundBlur" result="shape"/>
</filter>
<filter id="filter1_bd" x="6.76788" y="8.91913" width="47.8204" height="47.5576" filterUnits="userSpaceOnUse" color-interpolation-filters="sRGB">
<feFlood flood-opacity="0" result="BackgroundImageFix"/>
<feGaussianBlur in="BackgroundImage" stdDeviation="7.5"/>
<feComposite in2="SourceAlpha" operator="in" result="effect1_backgroundBlur"/>
<feColorMatrix in="SourceAlpha" type="matrix" values="0 0 0 0 0 0 0 0 0 0 0 0 0 0 0 0 0 0 127 0" result="hardAlpha"/>
<feOffset dx="5" dy="5"/>
<feGaussianBlur stdDeviation="5"/>
<feColorMatrix type="matrix" values="0 0 0 0 0.216667 0 0 0 0 0.216667 0 0 0 0 0.216667 0 0 0 0.5 0"/>
<feBlend mode="normal" in2="effect1_backgroundBlur" result="effect2_dropShadow"/>
<feBlend mode="normal" in="SourceGraphic" in2="effect2_dropShadow" result="shape"/>
</filter>
<linearGradient id="paint0_linear" x1="10.6951" y1="9.08991" x2="50.7642" y2="55.9126" gradientUnits="userSpaceOnUse">
<stop stop-color="white" stop-opacity="0.25"/>
<stop offset="1" stop-color="white" stop-opacity="0"/>
</linearGradient>
<linearGradient id="paint1_linear" x1="38.3248" y1="27.0897" x2="18.4752" y2="27.7465" gradientUnits="userSpaceOnUse">
<stop stop-color="white"/>
<stop offset="1" stop-color="white" stop-opacity="0.2"/>
</linearGradient>
<linearGradient id="paint2_linear" x1="24.6046" y1="25.9646" x2="35.7683" y2="39.9981" gradientUnits="userSpaceOnUse">
<stop stop-color="white" stop-opacity="0.25"/>
<stop offset="1" stop-color="white" stop-opacity="0"/>
</linearGradient>
</defs>
</svg>
