<svg width="48" height="56" viewBox="0 0 48 56" fill="none" xmlns="http://www.w3.org/2000/svg">
<g filter="url(#filter0_b)">
<path fill-rule="evenodd" clip-rule="evenodd" d="M20.9297 46.3555L4.09471 55.6593C2.75057 56.364 1.09462 55.8652 0.353608 54.5324C0.139223 54.1195 0.0235611 53.6618 0.0158691 53.1958V11.9708C0.0158691 4.10839 5.34174 0.96344 13.0058 0.96344H31.0099C38.4401 0.96344 43.9998 3.89872 43.9998 11.4466V53.1958C43.9998 53.9395 43.7069 54.6528 43.1856 55.1787C42.6643 55.7045 41.9572 56 41.2199 56C40.7497 55.9925 40.2874 55.8759 39.869 55.6593L22.9301 46.3555C22.3059 46.0153 21.5539 46.0153 20.9297 46.3555Z" fill="#656565" fill-opacity="0.35"/>
<path d="M20.6904 45.9165L20.6878 45.9179L3.85792 55.2189C2.75893 55.7919 1.40507 55.3869 0.794052 54.2956C0.618124 53.9544 0.522827 53.5764 0.515869 53.1914V11.9708C0.515869 8.1633 1.79827 5.57118 3.94253 3.91436C6.10945 2.24002 9.23007 1.46344 13.0058 1.46344H31.0099C34.6717 1.46344 37.7988 2.18877 39.9981 3.77968C42.1707 5.35129 43.4998 7.81206 43.4998 11.4466V53.1958C43.4998 53.8083 43.2585 54.3948 42.8305 54.8266C42.4035 55.2574 41.8257 55.4989 41.2239 55.5C40.8344 55.4931 40.4514 55.3967 40.1041 55.218L23.1708 45.9172L23.1694 45.9165C22.396 45.495 21.4637 45.495 20.6904 45.9165Z" stroke="white" stroke-opacity="0.1" stroke-linecap="round" stroke-linejoin="round"/>
</g>
<g filter="url(#filter1_bd)">
<path d="M30.531 18.8643H13.2328C12.236 18.8643 11.428 17.9504 11.428 16.8232C11.428 15.6959 12.236 14.7821 13.2328 14.7821H30.531C31.5278 14.7821 32.3359 15.6959 32.3359 16.8232C32.3359 17.9504 31.5278 18.8643 30.531 18.8643Z" fill="url(#paint0_linear)"/>
</g>
<defs>
<filter id="filter0_b" x="-23.9841" y="-23.0366" width="91.9839" height="103.037" filterUnits="userSpaceOnUse" color-interpolation-filters="sRGB">
<feFlood flood-opacity="0" result="BackgroundImageFix"/>
<feGaussianBlur in="BackgroundImage" stdDeviation="12"/>
<feComposite in2="SourceAlpha" operator="in" result="effect1_backgroundBlur"/>
<feBlend mode="normal" in="SourceGraphic" in2="effect1_backgroundBlur" result="shape"/>
</filter>
<filter id="filter1_bd" x="-3.57202" y="-0.217926" width="50.9079" height="34.0822" filterUnits="userSpaceOnUse" color-interpolation-filters="sRGB">
<feFlood flood-opacity="0" result="BackgroundImageFix"/>
<feGaussianBlur in="BackgroundImage" stdDeviation="7.5"/>
<feComposite in2="SourceAlpha" operator="in" result="effect1_backgroundBlur"/>
<feColorMatrix in="SourceAlpha" type="matrix" values="0 0 0 0 0 0 0 0 0 0 0 0 0 0 0 0 0 0 127 0" result="hardAlpha"/>
<feOffset dx="5" dy="5"/>
<feGaussianBlur stdDeviation="5"/>
<feColorMatrix type="matrix" values="0 0 0 0 0.216667 0 0 0 0 0.216667 0 0 0 0 0.216667 0 0 0 0.5 0"/>
<feBlend mode="normal" in2="effect1_backgroundBlur" result="effect2_dropShadow"/>
<feBlend mode="normal" in="SourceGraphic" in2="effect2_dropShadow" result="shape"/>
</filter>
<linearGradient id="paint0_linear" x1="30.8535" y1="15.5192" x2="8.17185" y2="19.3069" gradientUnits="userSpaceOnUse">
<stop stop-color="white"/>
<stop offset="1" stop-color="white" stop-opacity="0.2"/>
</linearGradient>
</defs>
</svg>


