<svg width="57" height="69" viewBox="0 0 57 69" fill="none" xmlns="http://www.w3.org/2000/svg">
<g filter="url(#filter0_b)">
<path d="M52.3779 57.962C50.4898 59.9141 47.9298 61.0071 45.263 61H10.0642C4.50591 61 0 56.3294 0 50.568V24.1096C0.0511116 21.8407 1.08541 19.7164 2.8159 18.326L21.7972 2.46181C25.0752 -0.482814 29.9165 -0.573847 33.2954 2.2456L52.7199 18.326C54.3723 19.7586 55.3272 21.8767 55.3273 24.1096V50.595C55.3273 53.3592 54.2661 56.0099 52.3779 57.962Z" fill="#656565" fill-opacity="0.35"/>
<path d="M45.2657 60H45.263H10.0642C5.09172 60 1 55.8112 1 50.568V24.1212C1.04769 22.144 1.95043 20.3042 3.44223 19.1056L3.45719 19.0933L22.4385 3.2291C22.4476 3.22148 22.4566 3.21369 22.4654 3.20574C25.3745 0.592597 29.6582 0.513025 32.6547 3.01342L32.6577 3.0159L52.0732 19.0888C53.4962 20.3268 54.3272 22.1634 54.3273 24.1096V50.595C54.3273 53.105 53.3634 55.5048 51.6592 57.2667C49.9561 59.0274 47.655 60.0064 45.2657 60Z" stroke="white" stroke-opacity="0.1" stroke-width="2" stroke-linecap="round" stroke-linejoin="round"/>
</g>
<g filter="url(#filter1_bd)">
<rect x="14.9758" y="45.6115" width="24.2465" height="5.95683" rx="2.97842" fill="url(#paint0_linear)"/>
<rect x="15.0758" y="45.7115" width="24.0465" height="5.75683" rx="2.87842" stroke="url(#paint1_linear)" stroke-opacity="0.5" stroke-width="0.2"/>
</g>
<defs>
<filter id="filter0_b" x="-24" y="-23.8094" width="103.327" height="108.809" filterUnits="userSpaceOnUse" color-interpolation-filters="sRGB">
<feFlood flood-opacity="0" result="BackgroundImageFix"/>
<feGaussianBlur in="BackgroundImage" stdDeviation="12"/>
<feComposite in2="SourceAlpha" operator="in" result="effect1_backgroundBlur"/>
<feBlend mode="normal" in="SourceGraphic" in2="effect1_backgroundBlur" result="shape"/>
</filter>
<filter id="filter1_bd" x="-0.0241699" y="30.6115" width="56.2465" height="37.9568" filterUnits="userSpaceOnUse" color-interpolation-filters="sRGB">
<feFlood flood-opacity="0" result="BackgroundImageFix"/>
<feGaussianBlur in="BackgroundImage" stdDeviation="7.5"/>
<feComposite in2="SourceAlpha" operator="in" result="effect1_backgroundBlur"/>
<feColorMatrix in="SourceAlpha" type="matrix" values="0 0 0 0 0 0 0 0 0 0 0 0 0 0 0 0 0 0 127 0" result="hardAlpha"/>
<feOffset dx="5" dy="5"/>
<feGaussianBlur stdDeviation="6"/>
<feColorMatrix type="matrix" values="0 0 0 0 0.215686 0 0 0 0 0.215686 0 0 0 0 0.215686 0 0 0 0.5 0"/>
<feBlend mode="normal" in2="effect1_backgroundBlur" result="effect2_dropShadow"/>
<feBlend mode="normal" in="SourceGraphic" in2="effect2_dropShadow" result="shape"/>
</filter>
<linearGradient id="paint0_linear" x1="37.5033" y1="46.6872" x2="10.9342" y2="50.2132" gradientUnits="userSpaceOnUse">
<stop stop-color="white"/>
<stop offset="1" stop-color="white" stop-opacity="0.2"/>
</linearGradient>
<linearGradient id="paint1_linear" x1="17.5877" y1="47.6097" x2="38.1666" y2="48.0721" gradientUnits="userSpaceOnUse">
<stop stop-color="white"/>
<stop offset="1" stop-color="white" stop-opacity="0"/>
</linearGradient>
</defs>
</svg>

