<svg width="59" height="48" viewBox="0 0 59 48" fill="none" xmlns="http://www.w3.org/2000/svg">
<g filter="url(#filter0_b)">
<mask id="path-1-outside-1" maskUnits="userSpaceOnUse" x="0.139951" y="0.671997" width="59" height="48" fill="black">
<rect fill="white" x="0.139951" y="0.671997" width="59" height="48"/>
<path fill-rule="evenodd" clip-rule="evenodd" d="M38.5653 1.74774C39.4611 1.76002 40.359 1.77234 41.2601 1.78155C50.9413 1.78155 58 8.68346 58 18.2147V30.4573C58 39.9886 50.9413 46.8905 41.2601 46.8905C37.382 46.9726 33.5039 47 29.5979 47C25.6919 47 21.758 46.9726 17.8799 46.8905C8.19863 46.8905 1.13995 39.9886 1.13995 30.4573V18.2147C1.13995 8.68346 8.19864 1.78155 17.9078 1.78155C21.5627 1.72677 25.3013 1.672 29.0957 1.672C30.4907 1.672 31.8857 1.672 33.2807 1.69939C35.0395 1.69939 36.7983 1.72351 38.5653 1.74774ZM26.306 26.3773H23.3765V29.2805C23.3765 30.4034 22.4279 31.3347 21.284 31.3347C20.1122 31.3347 19.1915 30.4034 19.1915 29.2805V26.3773H16.2341C15.0902 26.3773 14.1416 25.4735 14.1416 24.3232C14.1416 23.2003 15.0902 22.269 16.2341 22.269H19.1915V19.3933C19.1915 18.2703 20.1122 17.3391 21.284 17.3391C22.4279 17.3391 23.3765 18.2703 23.3765 19.3933V22.269H26.306C27.4499 22.269 28.3985 23.2003 28.3985 24.3232C28.3985 25.4735 27.4499 26.3773 26.306 26.3773ZM38.1639 21.7497H38.4429C39.5868 21.7497 40.5354 20.8459 40.5354 19.6956C40.5354 18.5727 39.5868 17.6415 38.4429 17.6415H38.1639C36.9921 17.6415 36.0714 18.5727 36.0714 19.6956C36.0714 20.8459 36.9921 21.7497 38.1639 21.7497ZM42.9343 31.1707H43.2133C44.3572 31.1707 45.3058 30.2668 45.3058 29.1165C45.3058 27.9936 44.3572 27.0624 43.2133 27.0624H42.9343C41.7625 27.0624 40.8418 27.9936 40.8418 29.1165C40.8418 30.2668 41.7625 31.1707 42.9343 31.1707Z"/>
</mask>
<path fill-rule="evenodd" clip-rule="evenodd" d="M38.5653 1.74774C39.4611 1.76002 40.359 1.77234 41.2601 1.78155C50.9413 1.78155 58 8.68346 58 18.2147V30.4573C58 39.9886 50.9413 46.8905 41.2601 46.8905C37.382 46.9726 33.5039 47 29.5979 47C25.6919 47 21.758 46.9726 17.8799 46.8905C8.19863 46.8905 1.13995 39.9886 1.13995 30.4573V18.2147C1.13995 8.68346 8.19864 1.78155 17.9078 1.78155C21.5627 1.72677 25.3013 1.672 29.0957 1.672C30.4907 1.672 31.8857 1.672 33.2807 1.69939C35.0395 1.69939 36.7983 1.72351 38.5653 1.74774ZM26.306 26.3773H23.3765V29.2805C23.3765 30.4034 22.4279 31.3347 21.284 31.3347C20.1122 31.3347 19.1915 30.4034 19.1915 29.2805V26.3773H16.2341C15.0902 26.3773 14.1416 25.4735 14.1416 24.3232C14.1416 23.2003 15.0902 22.269 16.2341 22.269H19.1915V19.3933C19.1915 18.2703 20.1122 17.3391 21.284 17.3391C22.4279 17.3391 23.3765 18.2703 23.3765 19.3933V22.269H26.306C27.4499 22.269 28.3985 23.2003 28.3985 24.3232C28.3985 25.4735 27.4499 26.3773 26.306 26.3773ZM38.1639 21.7497H38.4429C39.5868 21.7497 40.5354 20.8459 40.5354 19.6956C40.5354 18.5727 39.5868 17.6415 38.4429 17.6415H38.1639C36.9921 17.6415 36.0714 18.5727 36.0714 19.6956C36.0714 20.8459 36.9921 21.7497 38.1639 21.7497ZM42.9343 31.1707H43.2133C44.3572 31.1707 45.3058 30.2668 45.3058 29.1165C45.3058 27.9936 44.3572 27.0624 43.2133 27.0624H42.9343C41.7625 27.0624 40.8418 27.9936 40.8418 29.1165C40.8418 30.2668 41.7625 31.1707 42.9343 31.1707Z" fill="#656565" fill-opacity="0.35"/>
<path d="M41.2601 1.78155L41.2498 2.78155H41.2601V1.78155ZM38.5653 1.74774L38.579 0.747832L38.579 0.747832L38.5653 1.74774ZM41.2601 46.8905V45.8905C41.253 45.8905 41.2459 45.8905 41.2389 45.8907L41.2601 46.8905ZM17.8799 46.8905L17.9011 45.8907C17.894 45.8905 17.887 45.8905 17.8799 45.8905L17.8799 46.8905ZM17.9078 1.78155V2.78155C17.9128 2.78155 17.9178 2.78151 17.9228 2.78144L17.9078 1.78155ZM33.2807 1.69939L33.2611 2.69919C33.2676 2.69932 33.2741 2.69939 33.2807 2.69939V1.69939ZM23.3765 26.3773V25.3773C22.8242 25.3773 22.3765 25.825 22.3765 26.3773H23.3765ZM19.1915 26.3773H20.1915C20.1915 25.825 19.7438 25.3773 19.1915 25.3773V26.3773ZM19.1915 22.269V23.269C19.7438 23.269 20.1915 22.8213 20.1915 22.269H19.1915ZM23.3765 22.269H22.3765C22.3765 22.8213 22.8242 23.269 23.3765 23.269V22.269ZM41.2703 0.781603C40.3712 0.77241 39.4751 0.760121 38.579 0.747832L38.5515 2.74764C39.4471 2.75993 40.3467 2.77226 41.2498 2.7815L41.2703 0.781603ZM59 18.2147C59 8.11272 51.475 0.781551 41.2601 0.781551V2.78155C50.4077 2.78155 57 9.2542 57 18.2147H59ZM59 30.4573V18.2147H57V30.4573H59ZM41.2601 47.8905C51.475 47.8905 59 40.5593 59 30.4573H57C57 39.4178 50.4077 45.8905 41.2601 45.8905V47.8905ZM29.5979 48C33.5084 48 37.3939 47.9726 41.2812 47.8902L41.2389 45.8907C37.37 45.9727 33.4994 46 29.5979 46V48ZM17.8587 47.8902C21.7461 47.9726 25.6875 48 29.5979 48V46C25.6963 46 21.7699 45.9727 17.9011 45.8907L17.8587 47.8902ZM0.139951 30.4573C0.139951 40.5593 7.66499 47.8905 17.8799 47.8905V45.8905C8.73228 45.8905 2.13995 39.4178 2.13995 30.4573H0.139951ZM0.139951 18.2147V30.4573H2.13995V18.2147H0.139951ZM17.9078 0.781551C7.6661 0.781551 0.139951 8.11163 0.139951 18.2147H2.13995C2.13995 9.25529 8.73117 2.78155 17.9078 2.78155V0.781551ZM29.0957 0.671997C25.2927 0.671997 21.5469 0.726898 17.8928 0.781664L17.9228 2.78144C21.5785 2.72665 25.3099 2.672 29.0957 2.672V0.671997ZM33.3003 0.699578C31.8939 0.671965 30.4891 0.671997 29.0957 0.671997V2.672C30.4923 2.672 31.8775 2.67203 33.2611 2.69919L33.3003 0.699578ZM38.579 0.747832C36.8132 0.723616 35.0475 0.699386 33.2807 0.699386V2.69939C35.0315 2.69939 36.7834 2.7234 38.5515 2.74764L38.579 0.747832ZM23.3765 27.3773H26.306V25.3773H23.3765V27.3773ZM24.3765 29.2805V26.3773H22.3765V29.2805H24.3765ZM21.284 32.3347C22.9627 32.3347 24.3765 30.9731 24.3765 29.2805H22.3765C22.3765 29.8338 21.8932 30.3347 21.284 30.3347V32.3347ZM18.1915 29.2805C18.1915 30.9645 19.5687 32.3347 21.284 32.3347V30.3347C20.6557 30.3347 20.1915 29.8424 20.1915 29.2805H18.1915ZM18.1915 26.3773V29.2805H20.1915V26.3773H18.1915ZM16.2341 27.3773H19.1915V25.3773H16.2341V27.3773ZM13.1416 24.3232C13.1416 26.0517 14.5643 27.3773 16.2341 27.3773V25.3773C15.6162 25.3773 15.1416 24.8953 15.1416 24.3232H13.1416ZM16.2341 21.269C14.5555 21.269 13.1416 22.6306 13.1416 24.3232H15.1416C15.1416 23.7699 15.625 23.269 16.2341 23.269V21.269ZM19.1915 21.269H16.2341V23.269H19.1915V21.269ZM18.1915 19.3933V22.269H20.1915V19.3933H18.1915ZM21.284 16.3391C19.5687 16.3391 18.1915 17.7093 18.1915 19.3933H20.1915C20.1915 18.8313 20.6557 18.3391 21.284 18.3391V16.3391ZM24.3765 19.3933C24.3765 17.7007 22.9627 16.3391 21.284 16.3391V18.3391C21.8932 18.3391 22.3765 18.84 22.3765 19.3933H24.3765ZM24.3765 22.269V19.3933H22.3765V22.269H24.3765ZM26.306 21.269H23.3765V23.269H26.306V21.269ZM29.3985 24.3232C29.3985 22.6306 27.9847 21.269 26.306 21.269V23.269C26.9152 23.269 27.3985 23.7699 27.3985 24.3232H29.3985ZM26.306 27.3773C27.9759 27.3773 29.3985 26.0517 29.3985 24.3232H27.3985C27.3985 24.8953 26.9239 25.3773 26.306 25.3773V27.3773ZM38.4429 20.7497H38.1639V22.7497H38.4429V20.7497ZM39.5354 19.6956C39.5354 20.2677 39.0609 20.7497 38.4429 20.7497V22.7497C40.1128 22.7497 41.5354 21.4242 41.5354 19.6956H39.5354ZM38.4429 18.6415C39.0521 18.6415 39.5354 19.1423 39.5354 19.6956H41.5354C41.5354 18.003 40.1216 16.6415 38.4429 16.6415V18.6415ZM38.1639 18.6415H38.4429V16.6415H38.1639V18.6415ZM37.0714 19.6956C37.0714 19.1337 37.5357 18.6415 38.1639 18.6415V16.6415C36.4486 16.6415 35.0714 18.0117 35.0714 19.6956H37.0714ZM38.1639 20.7497C37.5269 20.7497 37.0714 20.2763 37.0714 19.6956H35.0714C35.0714 21.4156 36.4574 22.7497 38.1639 22.7497V20.7497ZM43.2133 30.1707H42.9343V32.1707H43.2133V30.1707ZM44.3058 29.1165C44.3058 29.6886 43.8312 30.1707 43.2133 30.1707V32.1707C44.8832 32.1707 46.3058 30.8451 46.3058 29.1165H44.3058ZM43.2133 28.0624C43.8224 28.0624 44.3058 28.5632 44.3058 29.1165H46.3058C46.3058 27.4239 44.892 26.0624 43.2133 26.0624V28.0624ZM42.9343 28.0624H43.2133V26.0624H42.9343V28.0624ZM41.8418 29.1165C41.8418 28.5546 42.306 28.0624 42.9343 28.0624V26.0624C41.219 26.0624 39.8418 27.4326 39.8418 29.1165H41.8418ZM42.9343 30.1707C42.2973 30.1707 41.8418 29.6972 41.8418 29.1165H39.8418C39.8418 30.8365 41.2277 32.1707 42.9343 32.1707V30.1707Z" fill="url(#paint0_linear)" mask="url(#path-1-outside-1)"/>
</g>
<defs>
<filter id="filter0_b" x="-23.86" y="-23.328" width="106.86" height="95.328" filterUnits="userSpaceOnUse" color-interpolation-filters="sRGB">
<feFlood flood-opacity="0" result="BackgroundImageFix"/>
<feGaussianBlur in="BackgroundImage" stdDeviation="12"/>
<feComposite in2="SourceAlpha" operator="in" result="effect1_backgroundBlur"/>
<feBlend mode="normal" in="SourceGraphic" in2="effect1_backgroundBlur" result="shape"/>
</filter>
<linearGradient id="paint0_linear" x1="10.1911" y1="6.95277" x2="37.1141" y2="48.7808" gradientUnits="userSpaceOnUse">
<stop stop-color="white" stop-opacity="0.25"/>
<stop offset="1" stop-color="white" stop-opacity="0"/>
</linearGradient>
</defs>
</svg>
