<svg width="58" height="60" viewBox="0 0 58 60" fill="none" xmlns="http://www.w3.org/2000/svg">
<g filter="url(#filter0_b)">
<path d="M52.6857 36.0074C52.1913 35.2311 51.4888 34.4549 50.5782 33.9632C49.8497 33.601 49.3813 33.0059 48.965 32.3072C47.6381 30.082 48.4187 27.1581 50.6302 25.8385C53.2321 24.3636 54.0646 21.0775 52.5556 18.5159L50.8123 15.4626C49.3293 12.901 46.077 11.9954 43.5012 13.4961C41.2116 14.7381 38.2715 13.9101 36.9446 11.7107C36.5283 10.9862 36.2941 10.21 36.3461 9.43375C36.4242 8.42462 36.112 7.46725 35.6436 6.691C34.681 5.08675 32.9377 4 31.0124 4H27.3438C25.4445 4.05175 23.7012 5.08675 22.7385 6.691C22.2442 7.46725 21.958 8.42462 22.01 9.43375C22.0621 10.21 21.8279 10.9862 21.4116 11.7107C20.0847 13.9101 17.1446 14.7381 14.881 13.4961C12.2792 11.9954 9.05289 12.901 7.54382 15.4626L5.80059 18.5159C4.31755 21.0775 5.15013 24.3636 7.72595 25.8385C9.93751 27.1581 10.7181 30.082 9.41714 32.3072C8.97483 33.0059 8.5065 33.601 7.77799 33.9632C6.89336 34.4549 6.11281 35.2311 5.69652 36.0074C4.73384 37.6116 4.78588 39.6299 5.74855 41.3117L7.54382 44.4167C8.5065 46.0727 10.3018 47.1077 12.1751 47.1077C13.0597 47.1077 14.1004 46.849 14.933 46.3315C15.5835 45.8916 16.364 45.7364 17.2226 45.7364C19.7985 45.7364 21.958 47.884 22.01 50.4456C22.01 53.4212 24.4037 55.75 27.4218 55.75H30.9603C33.9525 55.75 36.3461 53.4212 36.3461 50.4456C36.4242 47.884 38.5837 45.7364 41.1595 45.7364C41.9921 45.7364 42.7727 45.8916 43.4492 46.3315C44.2817 46.849 45.2965 47.1077 46.2071 47.1077C48.0544 47.1077 49.8497 46.0727 50.8123 44.4167L52.6336 41.3117C53.5703 39.5781 53.6483 37.6116 52.6857 36.0074Z" fill="url(#paint0_linear)"/>
</g>
<g opacity="0.5" filter="url(#filter1_f)">
<path d="M41.4678 33.177C41.2129 32.7775 40.8507 32.378 40.3811 32.1249C40.0055 31.9385 39.764 31.6322 39.5493 31.2726C38.8651 30.1272 39.2676 28.6223 40.4079 27.9431C41.7495 27.1839 42.1788 25.4926 41.4007 24.1741L40.5019 22.6025C39.7372 21.2841 38.0602 20.8179 36.732 21.5904C35.5515 22.2296 34.0355 21.8035 33.3513 20.6714C33.1366 20.2985 33.0159 19.899 33.0427 19.4994C33.083 18.98 32.922 18.4873 32.6805 18.0877C32.1841 17.262 31.2853 16.7027 30.2925 16.7027H28.4009C27.4215 16.7293 26.5227 17.262 26.0263 18.0877C25.7714 18.4873 25.6238 18.98 25.6507 19.4994C25.6775 19.899 25.5568 20.2985 25.3421 20.6714C24.6579 21.8035 23.1419 22.2296 21.9748 21.5904C20.6332 20.8179 18.9696 21.2841 18.1915 22.6025L17.2927 24.1741C16.528 25.4926 16.9573 27.1839 18.2854 27.9431C19.4258 28.6223 19.8282 30.1272 19.1575 31.2726C18.9294 31.6322 18.6879 31.9385 18.3123 32.1249C17.8561 32.378 17.4537 32.7775 17.239 33.177C16.7426 34.0028 16.7695 35.0416 17.2658 35.9072L18.1915 37.5054C18.6879 38.3578 19.6136 38.8905 20.5795 38.8905C21.0357 38.8905 21.5723 38.7573 22.0016 38.4909C22.337 38.2645 22.7395 38.1846 23.1822 38.1846C24.5103 38.1846 25.6238 39.29 25.6507 40.6085C25.6507 42.1401 26.8849 43.3387 28.4411 43.3387H30.2657C31.8085 43.3387 33.0427 42.1401 33.0427 40.6085C33.083 39.29 34.1965 38.1846 35.5246 38.1846C35.9539 38.1846 36.3564 38.2645 36.7052 38.4909C37.1345 38.7573 37.6577 38.8905 38.1273 38.8905C39.0798 38.8905 40.0055 38.3578 40.5019 37.5054L41.441 35.9072C41.9239 35.0149 41.9642 34.0028 41.4678 33.177Z" fill="white"/>
</g>
<defs>
<filter id="filter0_b" x="-8" y="-9" width="74.3727" height="77.75" filterUnits="userSpaceOnUse" color-interpolation-filters="sRGB">
<feFlood flood-opacity="0" result="BackgroundImageFix"/>
<feGaussianBlur in="BackgroundImage" stdDeviation="6.5"/>
<feComposite in2="SourceAlpha" operator="in" result="effect1_backgroundBlur"/>
<feBlend mode="normal" in="SourceGraphic" in2="effect1_backgroundBlur" result="shape"/>
</filter>
<filter id="filter1_f" x="0.879868" y="0.702667" width="56.9422" height="58.636" filterUnits="userSpaceOnUse" color-interpolation-filters="sRGB">
<feFlood flood-opacity="0" result="BackgroundImageFix"/>
<feBlend mode="normal" in="SourceGraphic" in2="BackgroundImageFix" result="shape"/>
<feGaussianBlur stdDeviation="8" result="effect1_foregroundBlur"/>
</filter>
<linearGradient id="paint0_linear" x1="32.7475" y1="33.3404" x2="-10.8086" y2="53.1363" gradientUnits="userSpaceOnUse">
<stop stop-color="white"/>
<stop offset="1" stop-color="white"/>
</linearGradient>
</defs>
</svg>
