<svg width="66" height="66" viewBox="0 0 66 66" fill="none" xmlns="http://www.w3.org/2000/svg">
<g filter="url(#filter0_b)">
<mask id="path-1-outside-1" maskUnits="userSpaceOnUse" x="0.528717" y="0.95459" width="57" height="57" fill="black">
<rect fill="white" x="0.528717" y="0.95459" width="57" height="57"/>
<path d="M40.5845 1.95459H16.9713C7.73843 1.95459 1.52872 8.38599 1.52872 17.952V40.0296C1.52872 49.5686 7.73843 56 16.9713 56H40.5845C49.8174 56 55.9999 49.5686 55.9999 40.0296V17.952C55.9999 8.38599 49.8174 1.95459 40.5845 1.95459Z"/>
</mask>
<path d="M40.5845 1.95459H16.9713C7.73843 1.95459 1.52872 8.38599 1.52872 17.952V40.0296C1.52872 49.5686 7.73843 56 16.9713 56H40.5845C49.8174 56 55.9999 49.5686 55.9999 40.0296V17.952C55.9999 8.38599 49.8174 1.95459 40.5845 1.95459Z" fill="#656565" fill-opacity="0.35"/>
<path d="M40.5845 2.95459C41.1368 2.95459 41.5845 2.50687 41.5845 1.95459C41.5845 1.40231 41.1368 0.95459 40.5845 0.95459V2.95459ZM40.5845 0.95459C40.0323 0.95459 39.5845 1.40231 39.5845 1.95459C39.5845 2.50687 40.0323 2.95459 40.5845 2.95459V0.95459ZM40.5845 0.95459H16.9713V2.95459H40.5845V0.95459ZM16.9713 0.95459C12.1146 0.95459 7.98373 2.65144 5.06823 5.6715C2.15568 8.68852 0.528717 12.95 0.528717 17.952H2.52872C2.52872 13.388 4.00661 9.65079 6.50713 7.06059C9.00471 4.47344 12.5952 2.95459 16.9713 2.95459V0.95459ZM0.528717 17.952V40.0296H2.52872V17.952H0.528717ZM0.528717 40.0296C0.528717 45.0188 2.15613 49.2736 5.06865 52.2869C7.98402 55.3032 12.1146 57 16.9713 57V55C12.5951 55 9.00441 53.4811 6.50671 50.8969C4.00616 48.3098 2.52872 44.5793 2.52872 40.0296H0.528717ZM16.9713 57H40.5845V55H16.9713V57ZM40.5845 57C45.4414 57 49.5657 55.303 52.4744 52.286C55.3801 49.2722 56.9999 45.0176 56.9999 40.0296H54.9999C54.9999 44.5806 53.5285 48.3112 51.0346 50.8979C48.5439 53.4813 44.9605 55 40.5845 55V57ZM56.9999 40.0296V17.952H54.9999V40.0296H56.9999ZM56.9999 17.952C56.9999 12.9512 55.3805 8.68986 52.4749 5.67241C49.566 2.6516 45.4415 0.95459 40.5845 0.95459V2.95459C44.9605 2.95459 48.5436 4.47328 51.0342 7.05968C53.528 9.64944 54.9999 13.3868 54.9999 17.952H56.9999Z" fill="url(#paint0_linear)" mask="url(#path-1-outside-1)"/>
</g>
<g filter="url(#filter1_bd)">
<mask id="path-3-inside-2" fill="white">
<path fill-rule="evenodd" clip-rule="evenodd" d="M12.4683 19.59C12.4683 23.3297 15.5317 26.3733 19.3018 26.3733C23.0692 26.3733 26.1354 23.3297 26.1354 19.59C26.1354 15.8504 23.0692 12.8068 19.3018 12.8068C15.5317 12.8068 12.4683 15.8504 12.4683 19.59ZM49.7244 44.4842C50.7034 42.1769 51.1791 39.3768 50.2634 37.0471C49.9582 36.2743 49.5017 35.5547 48.861 34.9219C47.1807 33.267 45.6105 31.7214 43.7433 30.5789C40.8119 28.7644 38.5487 31.3125 37.9383 32.1274C37.4512 32.7785 37.0207 33.4853 36.5844 34.2016C36.4935 34.3509 36.4023 34.5006 36.3103 34.6503L36.2886 34.686C34.9902 36.8197 33.4993 39.27 30.9287 40.6985C27.1723 42.7622 24.3206 40.8609 22.2692 39.4776C21.4992 38.9624 20.7512 38.4752 20.006 38.1504C18.169 37.3636 16.5163 38.2596 14.0634 41.3509C12.7764 42.9666 11.5005 44.5682 10.208 46.1643C9.43527 47.1191 9.61952 48.592 10.6617 49.2304C12.3254 50.2468 14.3549 50.7929 16.6483 50.7929H39.6955C40.9962 50.7929 42.2996 50.6164 43.5426 50.2132C46.342 49.306 48.564 47.2283 49.7244 44.4842Z"/>
</mask>
<path fill-rule="evenodd" clip-rule="evenodd" d="M12.4683 19.59C12.4683 23.3297 15.5317 26.3733 19.3018 26.3733C23.0692 26.3733 26.1354 23.3297 26.1354 19.59C26.1354 15.8504 23.0692 12.8068 19.3018 12.8068C15.5317 12.8068 12.4683 15.8504 12.4683 19.59ZM49.7244 44.4842C50.7034 42.1769 51.1791 39.3768 50.2634 37.0471C49.9582 36.2743 49.5017 35.5547 48.861 34.9219C47.1807 33.267 45.6105 31.7214 43.7433 30.5789C40.8119 28.7644 38.5487 31.3125 37.9383 32.1274C37.4512 32.7785 37.0207 33.4853 36.5844 34.2016C36.4935 34.3509 36.4023 34.5006 36.3103 34.6503L36.2886 34.686C34.9902 36.8197 33.4993 39.27 30.9287 40.6985C27.1723 42.7622 24.3206 40.8609 22.2692 39.4776C21.4992 38.9624 20.7512 38.4752 20.006 38.1504C18.169 37.3636 16.5163 38.2596 14.0634 41.3509C12.7764 42.9666 11.5005 44.5682 10.208 46.1643C9.43527 47.1191 9.61952 48.592 10.6617 49.2304C12.3254 50.2468 14.3549 50.7929 16.6483 50.7929H39.6955C40.9962 50.7929 42.2996 50.6164 43.5426 50.2132C46.342 49.306 48.564 47.2283 49.7244 44.4842Z" fill="url(#paint1_linear)"/>
<path d="M50.2634 37.0471L50.4496 36.974L50.4494 36.9737L50.2634 37.0471ZM49.7244 44.4842L49.5403 44.4061L49.5402 44.4063L49.7244 44.4842ZM48.861 34.9219L49.0015 34.7796L49.0013 34.7794L48.861 34.9219ZM43.7433 30.5789L43.6381 30.749L43.639 30.7495L43.7433 30.5789ZM37.9383 32.1274L37.7782 32.0074L37.7781 32.0076L37.9383 32.1274ZM36.5844 34.2016L36.7552 34.3057V34.3057L36.5844 34.2016ZM36.3103 34.6503L36.1399 34.5455L36.1394 34.5463L36.3103 34.6503ZM36.2886 34.686L36.1177 34.582L36.1177 34.582L36.2886 34.686ZM30.9287 40.6985L31.025 40.8738L31.0258 40.8733L30.9287 40.6985ZM22.2692 39.4776L22.381 39.3118L22.3804 39.3114L22.2692 39.4776ZM20.006 38.1504L20.0859 37.967L20.0847 37.9665L20.006 38.1504ZM14.0634 41.3509L14.2198 41.4755L14.2201 41.4752L14.0634 41.3509ZM10.208 46.1643L10.0526 46.0384L10.0525 46.0385L10.208 46.1643ZM10.6617 49.2304L10.5573 49.4009L10.5575 49.4011L10.6617 49.2304ZM43.5426 50.2132L43.4809 50.023L43.4809 50.023L43.5426 50.2132ZM19.3018 26.1733C15.6408 26.1733 12.6683 23.2179 12.6683 19.59H12.2683C12.2683 23.4415 15.4226 26.5733 19.3018 26.5733V26.1733ZM25.9354 19.59C25.9354 23.2178 22.9602 26.1733 19.3018 26.1733V26.5733C23.1783 26.5733 26.3354 23.4415 26.3354 19.59H25.9354ZM19.3018 13.0068C22.9602 13.0068 25.9354 15.9622 25.9354 19.59H26.3354C26.3354 15.7385 23.1783 12.6068 19.3018 12.6068V13.0068ZM12.6683 19.59C12.6683 15.9621 15.6408 13.0068 19.3018 13.0068V12.6068C15.4226 12.6068 12.2683 15.7386 12.2683 19.59H12.6683ZM50.0773 37.1203C50.9658 39.3808 50.5094 42.122 49.5403 44.4061L49.9085 44.5623C50.8974 42.2318 51.3925 39.3729 50.4496 36.974L50.0773 37.1203ZM48.7204 35.0642C49.3404 35.6765 49.7819 36.3723 50.0774 37.1206L50.4494 36.9737C50.1345 36.1763 49.663 35.4329 49.0015 34.7796L48.7204 35.0642ZM43.639 30.7495C45.4832 31.8779 47.0373 33.4064 48.7206 35.0644L49.0013 34.7794C47.3242 33.1276 45.7379 31.5648 43.8477 30.4083L43.639 30.7495ZM38.0983 32.2473C38.396 31.85 39.0923 31.0373 40.061 30.5455C41.0176 30.0598 42.2409 29.8842 43.6381 30.749L43.8486 30.4088C42.3143 29.4592 40.9404 29.6504 39.8799 30.1888C38.8315 30.7211 38.091 31.5899 37.7782 32.0074L38.0983 32.2473ZM36.7552 34.3057C37.1925 33.5878 37.6181 32.8894 38.0984 32.2472L37.7781 32.0076C37.2844 32.6677 36.849 33.3827 36.4136 34.0976L36.7552 34.3057ZM36.4807 34.755C36.5729 34.6049 36.6643 34.4549 36.7552 34.3057L36.4136 34.0976C36.3226 34.2469 36.2317 34.3962 36.1399 34.5455L36.4807 34.755ZM36.4594 34.7899L36.4811 34.7542L36.1394 34.5463L36.1177 34.582L36.4594 34.7899ZM31.0258 40.8733C33.6496 39.4153 35.1651 36.9171 36.4594 34.7899L36.1177 34.582C34.8154 36.7223 33.3489 39.1247 30.8315 40.5237L31.0258 40.8733ZM22.1574 39.6435C23.18 40.333 24.4318 41.1735 25.9072 41.5737C27.3933 41.9767 29.0989 41.9319 31.025 40.8738L30.8324 40.5232C29.0021 41.5287 27.4037 41.5651 26.0119 41.1876C24.6096 40.8073 23.4097 40.0055 22.381 39.3118L22.1574 39.6435ZM19.9261 38.3337C20.6525 38.6503 21.3864 39.1276 22.158 39.6439L22.3804 39.3114C21.612 38.7973 20.8499 38.3001 20.0859 37.967L19.9261 38.3337ZM14.2201 41.4752C15.4428 39.9343 16.4485 38.9644 17.3606 38.4724C18.2571 37.9888 19.0656 37.9652 19.9272 38.3342L20.0847 37.9665C19.1094 37.5488 18.1731 37.5797 17.1707 38.1203C16.1841 38.6525 15.137 39.6762 13.9067 41.2266L14.2201 41.4752ZM10.3634 46.2901C11.6565 44.6934 12.9329 43.0911 14.2198 41.4755L13.907 41.2263C12.6199 42.8421 11.3445 44.4431 10.0526 46.0384L10.3634 46.2901ZM10.7662 49.0598C9.83748 48.4909 9.65881 47.1608 10.3635 46.2901L10.0525 46.0385C9.21174 47.0774 9.40156 48.693 10.5573 49.4009L10.7662 49.0598ZM16.6483 50.5928C14.3868 50.5928 12.3944 50.0546 10.766 49.0597L10.5575 49.4011C12.2565 50.4391 14.323 50.9929 16.6483 50.9929V50.5928ZM39.6955 50.5928H16.6483V50.9929H39.6955V50.5928ZM43.4809 50.023C42.2606 50.4188 40.9783 50.5928 39.6955 50.5928V50.9929C41.014 50.9929 42.3387 50.814 43.6043 50.4035L43.4809 50.023ZM49.5402 44.4063C48.4016 47.0987 46.2233 49.1342 43.4809 50.023L43.6043 50.4035C46.4607 49.4778 48.7263 47.3579 49.9086 44.5621L49.5402 44.4063Z" fill="url(#paint2_linear)" fill-opacity="0.5" mask="url(#path-3-inside-2)"/>
</g>
<defs>
<filter id="filter0_b" x="-23.4713" y="-23.0454" width="104.471" height="104.045" filterUnits="userSpaceOnUse" color-interpolation-filters="sRGB">
<feFlood flood-opacity="0" result="BackgroundImageFix"/>
<feGaussianBlur in="BackgroundImage" stdDeviation="12"/>
<feComposite in2="SourceAlpha" operator="in" result="effect1_backgroundBlur"/>
<feBlend mode="normal" in="SourceGraphic" in2="effect1_backgroundBlur" result="shape"/>
</filter>
<filter id="filter1_bd" x="-5.26669" y="-2.19324" width="71.0201" height="67.9861" filterUnits="userSpaceOnUse" color-interpolation-filters="sRGB">
<feFlood flood-opacity="0" result="BackgroundImageFix"/>
<feGaussianBlur in="BackgroundImage" stdDeviation="7.5"/>
<feComposite in2="SourceAlpha" operator="in" result="effect1_backgroundBlur"/>
<feColorMatrix in="SourceAlpha" type="matrix" values="0 0 0 0 0 0 0 0 0 0 0 0 0 0 0 0 0 0 127 0" result="hardAlpha"/>
<feOffset dx="5" dy="5"/>
<feGaussianBlur stdDeviation="5"/>
<feColorMatrix type="matrix" values="0 0 0 0 0.216667 0 0 0 0 0.216667 0 0 0 0 0.216667 0 0 0 0.5 0"/>
<feBlend mode="normal" in2="effect1_backgroundBlur" result="effect2_dropShadow"/>
<feBlend mode="normal" in="SourceGraphic" in2="effect2_dropShadow" result="shape"/>
</filter>
<linearGradient id="paint0_linear" x1="10.1996" y1="8.25095" x2="44.6169" y2="51.2133" gradientUnits="userSpaceOnUse">
<stop stop-color="white" stop-opacity="0.25"/>
<stop offset="1" stop-color="white" stop-opacity="0.06"/>
</linearGradient>
<linearGradient id="paint1_linear" x1="47.8451" y1="19.6663" x2="2.16067" y2="21.2748" gradientUnits="userSpaceOnUse">
<stop stop-color="white"/>
<stop offset="1" stop-color="white" stop-opacity="0.8"/>
</linearGradient>
<linearGradient id="paint2_linear" x1="14.1521" y1="25.5493" x2="48.9837" y2="25.7569" gradientUnits="userSpaceOnUse">
<stop stop-color="white"/>
<stop offset="1" stop-color="white" stop-opacity="0"/>
</linearGradient>
</defs>
</svg>
