<svg width="54" height="41" viewBox="0 0 54 41" fill="none" xmlns="http://www.w3.org/2000/svg">
<path fill-rule="evenodd" clip-rule="evenodd" d="M52.0804 12.3384C51.0176 11.0823 49.9548 10.5089 48.334 10.5089H12.4503C11.6 10.5089 10.9092 9.85356 10.8295 8.97704L10.3246 2.86048C10.2449 1.93207 9.58066 1.17024 8.67726 1.00367L2.34016 0.0233813C1.25076 -0.143186 0.214507 0.596808 0.0285121 1.71363C-0.157483 2.80587 0.586496 3.8708 1.64932 4.06195C4.01349 4.48029 5.79847 6.43989 5.99498 8.83273L8.10599 34.5382C8.39827 38.1426 11.321 40.9251 14.8549 40.9251H43.8435C47.218 40.9251 50.0876 38.3884 50.5659 34.9451L53.0901 17.0323C53.3292 15.3967 53.1432 13.5945 52.0804 12.3384Z" fill="url(#paint0_linear)"/>
<defs>
<linearGradient id="paint0_linear" x1="53.1827" y1="0" x2="26.357" y2="40.7709" gradientUnits="userSpaceOnUse">
<stop stop-color="white"/>
<stop offset="1" stop-color="white"/>
</linearGradient>
</defs>
</svg>
