<svg width="80" height="70" viewBox="0 0 80 70" fill="none" xmlns="http://www.w3.org/2000/svg">
<g filter="url(#filter0_b)">
<path d="M49.7751 11.8303C47.053 11.8024 44.3592 11.7468 41.6655 11.7468V11.2179C41.6371 7.0425 38.1494 3.61868 33.8677 3.59084H31.0605C30.2099 3.59084 29.501 2.92278 29.501 2.0877C29.501 0.946423 28.5653 0 27.3743 0C26.2118 0 25.2477 0.946423 25.2477 2.0877C25.2477 5.20533 27.8564 7.76623 31.0605 7.76623H33.8677C35.7959 7.76623 37.4122 9.32505 37.4122 11.2457V11.7189C33.5558 11.7189 29.7562 11.7746 26.0416 11.8303C16.1739 11.8303 9 18.8449 9 28.5319V40.9745C9 50.6615 16.1739 57.6761 26.0133 57.6761C29.9547 57.7596 33.9528 57.7875 37.9226 57.7875C41.8923 57.7875 45.8337 57.7596 49.7751 57.6761C59.6145 57.6761 66.7884 50.6615 66.7884 40.9745V28.5319C66.7884 18.8449 59.6145 11.8303 49.7751 11.8303Z" fill="url(#paint0_linear)"/>
</g>
<g opacity="0.5" filter="url(#filter1_f)">
<path d="M46.9645 20.7443H28.4267C21.6713 20.7443 17.8438 23.5645 17.8438 28.5421V42.1883C17.8438 47.1659 21.6713 49.9861 28.4267 49.9861H46.9645C53.7199 49.9861 57.5298 47.1659 57.5298 42.1883V28.5421C57.5298 23.5645 53.7199 20.7443 46.9645 20.7443Z" fill="white"/>
</g>
<g filter="url(#filter2_b)">
<mask id="path-3-outside-1" maskUnits="userSpaceOnUse" x="19.14" y="22.672" width="59" height="48" fill="black">
<rect fill="white" x="19.14" y="22.672" width="59" height="48"/>
<path fill-rule="evenodd" clip-rule="evenodd" d="M57.5653 23.7477C58.4611 23.76 59.359 23.7723 60.2601 23.7816C69.9413 23.7816 77 30.6835 77 40.2147V52.4573C77 61.9886 69.9413 68.8905 60.2601 68.8905C56.382 68.9726 52.5039 69 48.5979 69C44.6919 69 40.758 68.9726 36.8799 68.8905C27.1986 68.8905 20.14 61.9886 20.14 52.4573V40.2147C20.14 30.6835 27.1986 23.7816 36.9078 23.7816C40.5627 23.7268 44.3013 23.672 48.0957 23.672C49.4907 23.672 50.8857 23.672 52.2807 23.6994C54.0395 23.6994 55.7983 23.7235 57.5653 23.7477ZM45.306 48.3773H42.3765V51.2805C42.3765 52.4034 41.4279 53.3347 40.284 53.3347C39.1122 53.3347 38.1915 52.4034 38.1915 51.2805V48.3773H35.2341C34.0902 48.3773 33.1416 47.4735 33.1416 46.3232C33.1416 45.2003 34.0902 44.269 35.2341 44.269H38.1915V41.3933C38.1915 40.2703 39.1122 39.3391 40.284 39.3391C41.4279 39.3391 42.3765 40.2703 42.3765 41.3933V44.269H45.306C46.4499 44.269 47.3985 45.2003 47.3985 46.3232C47.3985 47.4735 46.4499 48.3773 45.306 48.3773ZM57.1639 43.7497H57.4429C58.5868 43.7497 59.5354 42.8459 59.5354 41.6956C59.5354 40.5727 58.5868 39.6415 57.4429 39.6415H57.1639C55.9921 39.6415 55.0714 40.5727 55.0714 41.6956C55.0714 42.8459 55.9921 43.7497 57.1639 43.7497ZM61.9343 53.1707H62.2133C63.3572 53.1707 64.3058 52.2668 64.3058 51.1165C64.3058 49.9936 63.3572 49.0624 62.2133 49.0624H61.9343C60.7625 49.0624 59.8418 49.9936 59.8418 51.1165C59.8418 52.2668 60.7625 53.1707 61.9343 53.1707Z"/>
</mask>
<path fill-rule="evenodd" clip-rule="evenodd" d="M57.5653 23.7477C58.4611 23.76 59.359 23.7723 60.2601 23.7816C69.9413 23.7816 77 30.6835 77 40.2147V52.4573C77 61.9886 69.9413 68.8905 60.2601 68.8905C56.382 68.9726 52.5039 69 48.5979 69C44.6919 69 40.758 68.9726 36.8799 68.8905C27.1986 68.8905 20.14 61.9886 20.14 52.4573V40.2147C20.14 30.6835 27.1986 23.7816 36.9078 23.7816C40.5627 23.7268 44.3013 23.672 48.0957 23.672C49.4907 23.672 50.8857 23.672 52.2807 23.6994C54.0395 23.6994 55.7983 23.7235 57.5653 23.7477ZM45.306 48.3773H42.3765V51.2805C42.3765 52.4034 41.4279 53.3347 40.284 53.3347C39.1122 53.3347 38.1915 52.4034 38.1915 51.2805V48.3773H35.2341C34.0902 48.3773 33.1416 47.4735 33.1416 46.3232C33.1416 45.2003 34.0902 44.269 35.2341 44.269H38.1915V41.3933C38.1915 40.2703 39.1122 39.3391 40.284 39.3391C41.4279 39.3391 42.3765 40.2703 42.3765 41.3933V44.269H45.306C46.4499 44.269 47.3985 45.2003 47.3985 46.3232C47.3985 47.4735 46.4499 48.3773 45.306 48.3773ZM57.1639 43.7497H57.4429C58.5868 43.7497 59.5354 42.8459 59.5354 41.6956C59.5354 40.5727 58.5868 39.6415 57.4429 39.6415H57.1639C55.9921 39.6415 55.0714 40.5727 55.0714 41.6956C55.0714 42.8459 55.9921 43.7497 57.1639 43.7497ZM61.9343 53.1707H62.2133C63.3572 53.1707 64.3058 52.2668 64.3058 51.1165C64.3058 49.9936 63.3572 49.0624 62.2133 49.0624H61.9343C60.7625 49.0624 59.8418 49.9936 59.8418 51.1165C59.8418 52.2668 60.7625 53.1707 61.9343 53.1707Z" fill="#656565" fill-opacity="0.35"/>
<path d="M60.2601 23.7816L60.2498 24.7816H60.2601V23.7816ZM57.5653 23.7477L57.579 22.7478L57.5653 23.7477ZM60.2601 68.8905V67.8905C60.253 67.8905 60.2459 67.8905 60.2389 67.8907L60.2601 68.8905ZM36.8799 68.8905L36.9011 67.8907C36.894 67.8905 36.887 67.8905 36.8799 67.8905V68.8905ZM36.9078 23.7816V24.7816C36.9128 24.7816 36.9178 24.7815 36.9228 24.7814L36.9078 23.7816ZM52.2807 23.6994L52.2611 24.6992C52.2676 24.6993 52.2741 24.6994 52.2807 24.6994V23.6994ZM42.3765 48.3773V47.3773C41.8242 47.3773 41.3765 47.825 41.3765 48.3773H42.3765ZM38.1915 48.3773H39.1915C39.1915 47.825 38.7438 47.3773 38.1915 47.3773V48.3773ZM38.1915 44.269V45.269C38.7438 45.269 39.1915 44.8213 39.1915 44.269H38.1915ZM42.3765 44.269H41.3765C41.3765 44.8213 41.8242 45.269 42.3765 45.269V44.269ZM60.2703 22.7816C59.3712 22.7724 58.4751 22.7601 57.579 22.7478L57.5515 24.7476C58.4471 24.7599 59.3467 24.7723 60.2498 24.7815L60.2703 22.7816ZM78 40.2147C78 30.1127 70.475 22.7816 60.2601 22.7816V24.7816C69.4077 24.7816 76 31.2542 76 40.2147H78ZM78 52.4573V40.2147H76V52.4573H78ZM60.2601 69.8905C70.475 69.8905 78 62.5593 78 52.4573H76C76 61.4178 69.4077 67.8905 60.2601 67.8905V69.8905ZM48.5979 70C52.5084 70 56.3939 69.9726 60.2812 69.8902L60.2389 67.8907C56.37 67.9727 52.4994 68 48.5979 68V70ZM36.8587 69.8902C40.7461 69.9726 44.6875 70 48.5979 70V68C44.6963 68 40.7699 67.9727 36.9011 67.8907L36.8587 69.8902ZM19.14 52.4573C19.14 62.5593 26.665 69.8905 36.8799 69.8905V67.8905C27.7323 67.8905 21.14 61.4178 21.14 52.4573H19.14ZM19.14 40.2147V52.4573H21.14V40.2147H19.14ZM36.9078 22.7816C26.6661 22.7816 19.14 30.1116 19.14 40.2147H21.14C21.14 31.2553 27.7312 24.7816 36.9078 24.7816V22.7816ZM48.0957 22.672C44.2927 22.672 40.5469 22.7269 36.8928 22.7817L36.9228 24.7814C40.5785 24.7266 44.3099 24.672 48.0957 24.672V22.672ZM52.3003 22.6996C50.8939 22.672 49.4891 22.672 48.0957 22.672V24.672C49.4923 24.672 50.8775 24.672 52.2611 24.6992L52.3003 22.6996ZM57.579 22.7478C55.8132 22.7236 54.0475 22.6994 52.2807 22.6994V24.6994C54.0315 24.6994 55.7834 24.7234 57.5515 24.7476L57.579 22.7478ZM42.3765 49.3773H45.306V47.3773H42.3765V49.3773ZM43.3765 51.2805V48.3773H41.3765V51.2805H43.3765ZM40.284 54.3347C41.9627 54.3347 43.3765 52.9731 43.3765 51.2805H41.3765C41.3765 51.8338 40.8932 52.3347 40.284 52.3347V54.3347ZM37.1915 51.2805C37.1915 52.9645 38.5687 54.3347 40.284 54.3347V52.3347C39.6557 52.3347 39.1915 51.8424 39.1915 51.2805H37.1915ZM37.1915 48.3773V51.2805H39.1915V48.3773H37.1915ZM35.2341 49.3773H38.1915V47.3773H35.2341V49.3773ZM32.1416 46.3232C32.1416 48.0517 33.5643 49.3773 35.2341 49.3773V47.3773C34.6162 47.3773 34.1416 46.8953 34.1416 46.3232H32.1416ZM35.2341 43.269C33.5555 43.269 32.1416 44.6306 32.1416 46.3232H34.1416C34.1416 45.7699 34.625 45.269 35.2341 45.269V43.269ZM38.1915 43.269H35.2341V45.269H38.1915V43.269ZM37.1915 41.3933V44.269H39.1915V41.3933H37.1915ZM40.284 38.3391C38.5687 38.3391 37.1915 39.7093 37.1915 41.3933H39.1915C39.1915 40.8313 39.6557 40.3391 40.284 40.3391V38.3391ZM43.3765 41.3933C43.3765 39.7007 41.9627 38.3391 40.284 38.3391V40.3391C40.8932 40.3391 41.3765 40.84 41.3765 41.3933H43.3765ZM43.3765 44.269V41.3933H41.3765V44.269H43.3765ZM45.306 43.269H42.3765V45.269H45.306V43.269ZM48.3985 46.3232C48.3985 44.6306 46.9847 43.269 45.306 43.269V45.269C45.9152 45.269 46.3985 45.7699 46.3985 46.3232H48.3985ZM45.306 49.3773C46.9759 49.3773 48.3985 48.0517 48.3985 46.3232H46.3985C46.3985 46.8953 45.9239 47.3773 45.306 47.3773V49.3773ZM57.4429 42.7497H57.1639V44.7497H57.4429V42.7497ZM58.5354 41.6956C58.5354 42.2677 58.0609 42.7497 57.4429 42.7497V44.7497C59.1128 44.7497 60.5354 43.4242 60.5354 41.6956H58.5354ZM57.4429 40.6415C58.0521 40.6415 58.5354 41.1423 58.5354 41.6956H60.5354C60.5354 40.003 59.1216 38.6415 57.4429 38.6415V40.6415ZM57.1639 40.6415H57.4429V38.6415H57.1639V40.6415ZM56.0714 41.6956C56.0714 41.1337 56.5357 40.6415 57.1639 40.6415V38.6415C55.4486 38.6415 54.0714 40.0117 54.0714 41.6956H56.0714ZM57.1639 42.7497C56.5269 42.7497 56.0714 42.2763 56.0714 41.6956H54.0714C54.0714 43.4156 55.4574 44.7497 57.1639 44.7497V42.7497ZM62.2133 52.1707H61.9343V54.1707H62.2133V52.1707ZM63.3058 51.1165C63.3058 51.6886 62.8312 52.1707 62.2133 52.1707V54.1707C63.8832 54.1707 65.3058 52.8451 65.3058 51.1165H63.3058ZM62.2133 50.0624C62.8224 50.0624 63.3058 50.5632 63.3058 51.1165H65.3058C65.3058 49.4239 63.892 48.0624 62.2133 48.0624V50.0624ZM61.9343 50.0624H62.2133V48.0624H61.9343V50.0624ZM60.8418 51.1165C60.8418 50.5546 61.306 50.0624 61.9343 50.0624V48.0624C60.219 48.0624 58.8418 49.4326 58.8418 51.1165H60.8418ZM61.9343 52.1707C61.2973 52.1707 60.8418 51.6972 60.8418 51.1165H58.8418C58.8418 52.8365 60.2277 54.1707 61.9343 54.1707V52.1707Z" fill="url(#paint1_linear)" mask="url(#path-3-outside-1)"/>
</g>
<g filter="url(#filter3_bd)">
<mask id="path-5-inside-2" fill="white">
<path fill-rule="evenodd" clip-rule="evenodd" d="M57.1516 43.7642H57.4306C58.5745 43.7642 59.5231 42.8604 59.5231 41.7101C59.5231 40.5872 58.5745 39.6559 57.4306 39.6559H57.1516C55.9798 39.6559 55.0591 40.5872 55.0591 41.7101C55.0591 42.8604 55.9798 43.7642 57.1516 43.7642ZM61.9226 53.1865H62.2016C63.3455 53.1865 64.2941 52.2827 64.2941 51.1324C64.2941 50.0094 63.3455 49.0782 62.2016 49.0782H61.9226C60.7508 49.0782 59.8301 50.0094 59.8301 51.1324C59.8301 52.2827 60.7508 53.1865 61.9226 53.1865Z"/>
</mask>
<path fill-rule="evenodd" clip-rule="evenodd" d="M57.1516 43.7642H57.4306C58.5745 43.7642 59.5231 42.8604 59.5231 41.7101C59.5231 40.5872 58.5745 39.6559 57.4306 39.6559H57.1516C55.9798 39.6559 55.0591 40.5872 55.0591 41.7101C55.0591 42.8604 55.9798 43.7642 57.1516 43.7642ZM61.9226 53.1865H62.2016C63.3455 53.1865 64.2941 52.2827 64.2941 51.1324C64.2941 50.0094 63.3455 49.0782 62.2016 49.0782H61.9226C60.7508 49.0782 59.8301 50.0094 59.8301 51.1324C59.8301 52.2827 60.7508 53.1865 61.9226 53.1865Z" fill="url(#paint2_linear)"/>
<path d="M57.4306 43.3642H57.1516V44.1642H57.4306V43.3642ZM59.1231 41.7101C59.1231 42.6291 58.3641 43.3642 57.4306 43.3642V44.1642C58.7849 44.1642 59.9231 43.0917 59.9231 41.7101H59.1231ZM57.4306 40.0559C58.3606 40.0559 59.1231 40.815 59.1231 41.7101H59.9231C59.9231 40.3593 58.7884 39.2559 57.4306 39.2559V40.0559ZM57.1516 40.0559H57.4306V39.2559H57.1516V40.0559ZM55.4591 41.7101C55.4591 40.8116 56.1972 40.0559 57.1516 40.0559V39.2559C55.7624 39.2559 54.6591 40.3627 54.6591 41.7101H55.4591ZM57.1516 43.3642C56.1937 43.3642 55.4591 42.6325 55.4591 41.7101H54.6591C54.6591 43.0883 55.7659 44.1642 57.1516 44.1642V43.3642ZM62.2016 52.7865H61.9226V53.5865H62.2016V52.7865ZM63.8941 51.1324C63.8941 52.0514 63.1351 52.7865 62.2016 52.7865V53.5865C63.5559 53.5865 64.6941 52.514 64.6941 51.1324H63.8941ZM62.2016 49.4782C63.1316 49.4782 63.8941 50.2373 63.8941 51.1324H64.6941C64.6941 49.7816 63.5594 48.6782 62.2016 48.6782V49.4782ZM61.9226 49.4782H62.2016V48.6782H61.9226V49.4782ZM60.2301 51.1324C60.2301 50.2338 60.9682 49.4782 61.9226 49.4782V48.6782C60.5334 48.6782 59.4301 49.785 59.4301 51.1324H60.2301ZM61.9226 52.7865C60.9647 52.7865 60.2301 52.0548 60.2301 51.1324H59.4301C59.4301 52.5105 60.5369 53.5865 61.9226 53.5865V52.7865Z" fill="url(#paint3_linear)" mask="url(#path-5-inside-2)"/>
</g>
<g filter="url(#filter4_bd)">
<mask id="path-7-inside-3" fill="white">
<path d="M45.2944 48.3923H42.3649V51.2955C42.3649 52.4184 41.4164 53.3496 40.2725 53.3496C39.1007 53.3496 38.18 52.4184 38.18 51.2955V48.3923H35.2226C34.0787 48.3923 33.1301 47.4885 33.1301 46.3381C33.1301 45.2152 34.0787 44.284 35.2226 44.284H38.18V41.4082C38.18 40.2853 39.1007 39.3541 40.2725 39.3541C41.4164 39.3541 42.3649 40.2853 42.3649 41.4082V44.284H45.2944C46.4383 44.284 47.3869 45.2152 47.3869 46.3381C47.3869 47.4885 46.4383 48.3923 45.2944 48.3923Z"/>
</mask>
<path d="M45.2944 48.3923H42.3649V51.2955C42.3649 52.4184 41.4164 53.3496 40.2725 53.3496C39.1007 53.3496 38.18 52.4184 38.18 51.2955V48.3923H35.2226C34.0787 48.3923 33.1301 47.4885 33.1301 46.3381C33.1301 45.2152 34.0787 44.284 35.2226 44.284H38.18V41.4082C38.18 40.2853 39.1007 39.3541 40.2725 39.3541C41.4164 39.3541 42.3649 40.2853 42.3649 41.4082V44.284H45.2944C46.4383 44.284 47.3869 45.2152 47.3869 46.3381C47.3869 47.4885 46.4383 48.3923 45.2944 48.3923Z" fill="url(#paint4_linear)"/>
<path d="M42.3649 48.3923V47.9923H41.9649V48.3923H42.3649ZM38.18 48.3923H38.58V47.9923H38.18V48.3923ZM38.18 44.284V44.684H38.58V44.284H38.18ZM42.3649 44.284H41.9649V44.684H42.3649V44.284ZM45.2944 47.9923H42.3649V48.7923H45.2944V47.9923ZM41.9649 48.3923V51.2955H42.7649V48.3923H41.9649ZM41.9649 51.2955C41.9649 52.1905 41.2024 52.9496 40.2725 52.9496V53.7496C41.6303 53.7496 42.7649 52.6463 42.7649 51.2955H41.9649ZM40.2725 52.9496C39.3181 52.9496 38.58 52.194 38.58 51.2955H37.78C37.78 52.6428 38.8833 53.7496 40.2725 53.7496V52.9496ZM38.58 51.2955V48.3923H37.78V51.2955H38.58ZM38.18 47.9923H35.2226V48.7923H38.18V47.9923ZM35.2226 47.9923C34.2891 47.9923 33.5301 47.2572 33.5301 46.3381H32.7301C32.7301 47.7198 33.8683 48.7923 35.2226 48.7923V47.9923ZM33.5301 46.3381C33.5301 45.4431 34.2926 44.684 35.2226 44.684V43.884C33.8648 43.884 32.7301 44.9874 32.7301 46.3381H33.5301ZM35.2226 44.684H38.18V43.884H35.2226V44.684ZM38.58 44.284V41.4082H37.78V44.284H38.58ZM38.58 41.4082C38.58 40.5097 39.3181 39.7541 40.2725 39.7541V38.9541C38.8833 38.9541 37.78 40.0609 37.78 41.4082H38.58ZM40.2725 39.7541C41.2024 39.7541 41.9649 40.5131 41.9649 41.4082H42.7649C42.7649 40.0574 41.6303 38.9541 40.2725 38.9541V39.7541ZM41.9649 41.4082V44.284H42.7649V41.4082H41.9649ZM42.3649 44.684H45.2944V43.884H42.3649V44.684ZM45.2944 44.684C46.2244 44.684 46.9869 45.4431 46.9869 46.3381H47.7869C47.7869 44.9874 46.6522 43.884 45.2944 43.884V44.684ZM46.9869 46.3381C46.9869 47.2572 46.2279 47.9923 45.2944 47.9923V48.7923C46.6487 48.7923 47.7869 47.7198 47.7869 46.3381H46.9869Z" fill="url(#paint5_linear)" mask="url(#path-7-inside-3)"/>
</g>
<defs>
<filter id="filter0_b" x="-4" y="-13" width="83.7884" height="83.7875" filterUnits="userSpaceOnUse" color-interpolation-filters="sRGB">
<feFlood flood-opacity="0" result="BackgroundImageFix"/>
<feGaussianBlur in="BackgroundImage" stdDeviation="6.5"/>
<feComposite in2="SourceAlpha" operator="in" result="effect1_backgroundBlur"/>
<feBlend mode="normal" in="SourceGraphic" in2="effect1_backgroundBlur" result="shape"/>
</filter>
<filter id="filter1_f" x="0.843799" y="3.74426" width="73.686" height="63.2419" filterUnits="userSpaceOnUse" color-interpolation-filters="sRGB">
<feFlood flood-opacity="0" result="BackgroundImageFix"/>
<feBlend mode="normal" in="SourceGraphic" in2="BackgroundImageFix" result="shape"/>
<feGaussianBlur stdDeviation="8.5" result="effect1_foregroundBlur"/>
</filter>
<filter id="filter2_b" x="-4.86005" y="-1.328" width="106.86" height="95.328" filterUnits="userSpaceOnUse" color-interpolation-filters="sRGB">
<feFlood flood-opacity="0" result="BackgroundImageFix"/>
<feGaussianBlur in="BackgroundImage" stdDeviation="12"/>
<feComposite in2="SourceAlpha" operator="in" result="effect1_backgroundBlur"/>
<feBlend mode="normal" in="SourceGraphic" in2="effect1_backgroundBlur" result="shape"/>
</filter>
<filter id="filter3_bd" x="40.0591" y="24.6559" width="39.2351" height="43.5306" filterUnits="userSpaceOnUse" color-interpolation-filters="sRGB">
<feFlood flood-opacity="0" result="BackgroundImageFix"/>
<feGaussianBlur in="BackgroundImage" stdDeviation="7.5"/>
<feComposite in2="SourceAlpha" operator="in" result="effect1_backgroundBlur"/>
<feColorMatrix in="SourceAlpha" type="matrix" values="0 0 0 0 0 0 0 0 0 0 0 0 0 0 0 0 0 0 127 0" result="hardAlpha"/>
<feOffset dx="5" dy="5"/>
<feGaussianBlur stdDeviation="5"/>
<feColorMatrix type="matrix" values="0 0 0 0 0.216667 0 0 0 0 0.216667 0 0 0 0 0.216667 0 0 0 0.5 0"/>
<feBlend mode="normal" in2="effect1_backgroundBlur" result="effect2_dropShadow"/>
<feBlend mode="normal" in="SourceGraphic" in2="effect2_dropShadow" result="shape"/>
</filter>
<filter id="filter4_bd" x="18.1301" y="24.3541" width="44.2569" height="43.9955" filterUnits="userSpaceOnUse" color-interpolation-filters="sRGB">
<feFlood flood-opacity="0" result="BackgroundImageFix"/>
<feGaussianBlur in="BackgroundImage" stdDeviation="7.5"/>
<feComposite in2="SourceAlpha" operator="in" result="effect1_backgroundBlur"/>
<feColorMatrix in="SourceAlpha" type="matrix" values="0 0 0 0 0 0 0 0 0 0 0 0 0 0 0 0 0 0 127 0" result="hardAlpha"/>
<feOffset dx="5" dy="5"/>
<feGaussianBlur stdDeviation="5"/>
<feColorMatrix type="matrix" values="0 0 0 0 0.216667 0 0 0 0 0.216667 0 0 0 0 0.216667 0 0 0 0.5 0"/>
<feBlend mode="normal" in2="effect1_backgroundBlur" result="effect2_dropShadow"/>
<feBlend mode="normal" in="SourceGraphic" in2="effect2_dropShadow" result="shape"/>
</filter>
<linearGradient id="paint0_linear" x1="42.1486" y1="32.7634" x2="-8.62919" y2="57.4531" gradientUnits="userSpaceOnUse">
<stop stop-color="white"/>
<stop offset="1" stop-color="white"/>
</linearGradient>
<linearGradient id="paint1_linear" x1="29.1911" y1="28.9528" x2="56.1141" y2="70.7808" gradientUnits="userSpaceOnUse">
<stop stop-color="white" stop-opacity="0.25"/>
<stop offset="1" stop-color="white" stop-opacity="0"/>
</linearGradient>
<linearGradient id="paint2_linear" x1="63.6394" y1="42.0993" x2="53.3466" y2="42.3283" gradientUnits="userSpaceOnUse">
<stop stop-color="white"/>
<stop offset="1" stop-color="white" stop-opacity="0.2"/>
</linearGradient>
<linearGradient id="paint3_linear" x1="56.5291" y1="41.2323" x2="65.2352" y2="48.5918" gradientUnits="userSpaceOnUse">
<stop stop-color="white" stop-opacity="0.25"/>
<stop offset="1" stop-color="white" stop-opacity="0"/>
</linearGradient>
<linearGradient id="paint4_linear" x1="46.3761" y1="41.8814" x2="30.496" y2="42.4088" gradientUnits="userSpaceOnUse">
<stop stop-color="white"/>
<stop offset="1" stop-color="white" stop-opacity="0.2"/>
</linearGradient>
<linearGradient id="paint5_linear" x1="35.3995" y1="40.9846" x2="44.291" y2="52.2025" gradientUnits="userSpaceOnUse">
<stop stop-color="white" stop-opacity="0.25"/>
<stop offset="1" stop-color="white" stop-opacity="0"/>
</linearGradient>
</defs>
</svg>
