<svg width="60" height="61" viewBox="0 0 60 61" fill="none" xmlns="http://www.w3.org/2000/svg">
<g filter="url(#filter0_b)">
<mask id="path-1-outside-1" maskUnits="userSpaceOnUse" x="0" y="-0.192062" width="60" height="62" fill="black">
<rect fill="white" y="-0.192062" width="60" height="62"/>
<path fill-rule="evenodd" clip-rule="evenodd" d="M6.44173 13.2353C4.67927 13.2353 3.52355 13.8588 2.36784 15.2247C1.21212 16.5906 1.00988 18.5503 1.26991 20.3288L4.01473 39.8072C4.5348 43.5514 7.65523 46.3098 11.3246 46.3098H42.8467C46.6895 46.3098 49.8677 43.2841 50.1855 39.3647L52.8437 6.9969L57.2065 6.22489C58.3622 6.01704 59.1712 4.85903 58.969 3.67133C58.7667 2.45691 57.6399 1.65224 56.4553 1.83336L49.5643 2.89932C48.582 3.08045 47.8597 3.90887 47.773 4.91842L47.224 11.5695C47.1373 12.5227 46.3861 13.2353 45.4615 13.2353H6.44173ZM43.31 51.0032C45.737 51.0032 47.7017 53.0222 47.7017 55.5164C47.7017 57.9809 45.737 60 43.31 60C40.9119 60 38.9472 57.9809 38.9472 55.5164C38.9472 53.0222 40.9119 51.0032 43.31 51.0032ZM10.8058 51.0032C13.2328 51.0032 15.1975 53.0222 15.1975 55.5164C15.1975 57.9809 13.2328 60 10.8058 60C8.40766 60 6.44294 57.9809 6.44294 55.5164C6.44294 53.0222 8.40766 51.0032 10.8058 51.0032Z"/>
</mask>
<path fill-rule="evenodd" clip-rule="evenodd" d="M6.44173 13.2353C4.67927 13.2353 3.52355 13.8588 2.36784 15.2247C1.21212 16.5906 1.00988 18.5503 1.26991 20.3288L4.01473 39.8072C4.5348 43.5514 7.65523 46.3098 11.3246 46.3098H42.8467C46.6895 46.3098 49.8677 43.2841 50.1855 39.3647L52.8437 6.9969L57.2065 6.22489C58.3622 6.01704 59.1712 4.85903 58.969 3.67133C58.7667 2.45691 57.6399 1.65224 56.4553 1.83336L49.5643 2.89932C48.582 3.08045 47.8597 3.90887 47.773 4.91842L47.224 11.5695C47.1373 12.5227 46.3861 13.2353 45.4615 13.2353H6.44173ZM43.31 51.0032C45.737 51.0032 47.7017 53.0222 47.7017 55.5164C47.7017 57.9809 45.737 60 43.31 60C40.9119 60 38.9472 57.9809 38.9472 55.5164C38.9472 53.0222 40.9119 51.0032 43.31 51.0032ZM10.8058 51.0032C13.2328 51.0032 15.1975 53.0222 15.1975 55.5164C15.1975 57.9809 13.2328 60 10.8058 60C8.40766 60 6.44294 57.9809 6.44294 55.5164C6.44294 53.0222 8.40766 51.0032 10.8058 51.0032Z" fill="#A3A3A3" fill-opacity="0.35"/>
<path d="M2.36784 15.2247L3.13123 15.8706V15.8706L2.36784 15.2247ZM1.26991 20.3288L2.25941 20.1842L2.26013 20.1893L1.26991 20.3288ZM4.01473 39.8072L5.00495 39.6676L5.00522 39.6696L4.01473 39.8072ZM50.1855 39.3647L49.1888 39.2839L49.1889 39.2829L50.1855 39.3647ZM52.8437 6.9969L51.847 6.91505C51.8842 6.46221 52.222 6.09136 52.6694 6.01219L52.8437 6.9969ZM57.2065 6.22489L57.3835 7.2091L57.3807 7.20959L57.2065 6.22489ZM58.969 3.67133L57.9831 3.8392L57.9825 3.83561L58.969 3.67133ZM56.4553 1.83336L56.3024 0.845115L56.3041 0.84485L56.4553 1.83336ZM49.5643 2.89932L49.383 1.9159C49.3925 1.91416 49.402 1.91255 49.4115 1.91108L49.5643 2.89932ZM47.773 4.91842L46.7764 4.83616L46.7766 4.83287L47.773 4.91842ZM47.224 11.5695L48.2207 11.6518L48.2199 11.6601L47.224 11.5695ZM1.60445 14.5788C2.23907 13.8287 2.91898 13.2286 3.73029 12.8232C4.54805 12.4147 5.4363 12.2353 6.44173 12.2353V14.2353C5.6847 14.2353 5.11386 14.3677 4.62421 14.6124C4.12812 14.8602 3.65232 15.2548 3.13123 15.8706L1.60445 14.5788ZM0.280434 20.4735C0.00148392 18.5656 0.182194 16.2596 1.60445 14.5788L3.13123 15.8706C2.24205 16.9215 2.01827 18.535 2.25939 20.1842L0.280434 20.4735ZM3.02451 39.9467L0.279697 20.4684L2.26013 20.1893L5.00494 39.6676L3.02451 39.9467ZM11.3246 47.3098C7.13905 47.3098 3.61061 44.1663 3.02424 39.9447L5.00522 39.6696C5.459 42.9365 8.17141 45.3098 11.3246 45.3098V47.3098ZM42.8467 47.3098H11.3246V45.3098H42.8467V47.3098ZM51.1823 39.4456C50.8244 43.8591 47.2353 47.3098 42.8467 47.3098V45.3098C46.1437 45.3098 48.911 42.7092 49.1888 39.2839L51.1823 39.4456ZM53.8403 7.07874L51.1822 39.4466L49.1889 39.2829L51.847 6.91505L53.8403 7.07874ZM57.3807 7.20959L53.0179 7.9816L52.6694 6.01219L57.0323 5.24019L57.3807 7.20959ZM59.9548 3.50346C60.2472 5.22054 59.0906 6.90208 57.3835 7.2091L57.0295 5.24068C57.6338 5.132 58.0953 4.49753 57.9832 3.8392L59.9548 3.50346ZM56.3041 0.84485C58.0312 0.580789 59.6635 1.75458 59.9554 3.50705L57.9825 3.83561C57.8699 3.15923 57.2486 2.72369 56.6064 2.82187L56.3041 0.84485ZM49.4115 1.91108L56.3024 0.845116L56.6082 2.82161L49.7172 3.88757L49.4115 1.91108ZM46.7766 4.83287C46.8998 3.39801 47.9352 2.18285 49.383 1.9159L49.7457 3.88275C49.2288 3.97805 48.8195 4.41973 48.7693 5.00396L46.7766 4.83287ZM46.2274 11.4873L46.7764 4.83616L48.7696 5.00067L48.2206 11.6518L46.2274 11.4873ZM45.4615 12.2353C45.8373 12.2353 46.1854 11.9492 46.2281 11.479L48.2199 11.6601C48.0893 13.0962 46.9349 14.2353 45.4615 14.2353V12.2353ZM6.44173 12.2353H45.4615V14.2353H6.44173V12.2353ZM46.7017 55.5164C46.7017 53.5486 45.1591 52.0032 43.31 52.0032V50.0032C46.3148 50.0032 48.7017 52.4959 48.7017 55.5164H46.7017ZM43.31 59C45.1634 59 46.7017 57.4502 46.7017 55.5164H48.7017C48.7017 58.5116 46.3106 61 43.31 61V59ZM39.9472 55.5164C39.9472 57.4545 41.4897 59 43.31 59V61C40.334 61 37.9472 58.5073 37.9472 55.5164H39.9472ZM43.31 52.0032C41.494 52.0032 39.9472 53.5443 39.9472 55.5164H37.9472C37.9472 52.5002 40.3298 50.0032 43.31 50.0032V52.0032ZM14.1975 55.5164C14.1975 53.5486 12.6549 52.0032 10.8058 52.0032V50.0032C13.8106 50.0032 16.1975 52.4959 16.1975 55.5164H14.1975ZM10.8058 59C12.6592 59 14.1975 57.4502 14.1975 55.5164H16.1975C16.1975 58.5116 13.8064 61 10.8058 61V59ZM7.44294 55.5164C7.44294 57.4545 8.9855 59 10.8058 59V61C7.82981 61 5.44294 58.5073 5.44294 55.5164H7.44294ZM10.8058 52.0032C8.98973 52.0032 7.44294 53.5443 7.44294 55.5164H5.44294C5.44294 52.5002 7.82558 50.0032 10.8058 50.0032V52.0032Z" fill="url(#paint0_linear)" mask="url(#path-1-outside-1)"/>
</g>
<g filter="url(#filter1_bd)">
<mask id="path-3-inside-2" fill="white">
<path fill-rule="evenodd" clip-rule="evenodd" d="M15.9472 28.671H23.9506C25.1641 28.671 26.1175 27.6614 26.1175 26.444C26.1175 25.197 25.1641 24.2171 23.9506 24.2171H15.9472C14.7337 24.2171 13.7803 25.197 13.7803 26.444C13.7803 27.6614 14.7337 28.671 15.9472 28.671Z"/>
</mask>
<path fill-rule="evenodd" clip-rule="evenodd" d="M15.9472 28.671H23.9506C25.1641 28.671 26.1175 27.6614 26.1175 26.444C26.1175 25.197 25.1641 24.2171 23.9506 24.2171H15.9472C14.7337 24.2171 13.7803 25.197 13.7803 26.444C13.7803 27.6614 14.7337 28.671 15.9472 28.671Z" fill="url(#paint1_linear)"/>
<path d="M15.9472 28.471H23.9506V28.871H15.9472V28.471ZM23.9506 28.471C25.0468 28.471 25.9175 27.5579 25.9175 26.444H26.3175C26.3175 27.7649 25.2813 28.871 23.9506 28.871V28.471ZM25.9175 26.444C25.9175 25.3022 25.0485 24.4171 23.9506 24.4171V24.0171C25.2796 24.0171 26.3175 25.0917 26.3175 26.444H25.9175ZM23.9506 24.4171H15.9472V24.0171H23.9506V24.4171ZM15.9472 24.4171C14.8493 24.4171 13.9803 25.3022 13.9803 26.444H13.5803C13.5803 25.0917 14.6182 24.0171 15.9472 24.0171V24.4171ZM13.9803 26.444C13.9803 27.5579 14.851 28.471 15.9472 28.471V28.871C14.6165 28.871 13.5803 27.7649 13.5803 26.444H13.9803Z" fill="url(#paint2_linear)" fill-opacity="0.5" mask="url(#path-3-inside-2)"/>
</g>
<defs>
<filter id="filter0_b" x="-23.8304" y="-23.1922" width="107.83" height="108.192" filterUnits="userSpaceOnUse" color-interpolation-filters="sRGB">
<feFlood flood-opacity="0" result="BackgroundImageFix"/>
<feGaussianBlur in="BackgroundImage" stdDeviation="12"/>
<feComposite in2="SourceAlpha" operator="in" result="effect1_backgroundBlur"/>
<feBlend mode="normal" in="SourceGraphic" in2="effect1_backgroundBlur" result="shape"/>
</filter>
<filter id="filter1_bd" x="-1.21973" y="9.2171" width="42.3373" height="34.4539" filterUnits="userSpaceOnUse" color-interpolation-filters="sRGB">
<feFlood flood-opacity="0" result="BackgroundImageFix"/>
<feGaussianBlur in="BackgroundImage" stdDeviation="7.5"/>
<feComposite in2="SourceAlpha" operator="in" result="effect1_backgroundBlur"/>
<feColorMatrix in="SourceAlpha" type="matrix" values="0 0 0 0 0 0 0 0 0 0 0 0 0 0 0 0 0 0 127 0" result="hardAlpha"/>
<feOffset dx="5" dy="5"/>
<feGaussianBlur stdDeviation="5"/>
<feColorMatrix type="matrix" values="0 0 0 0 0.216667 0 0 0 0 0.216667 0 0 0 0 0.216667 0 0 0 0.5 0"/>
<feBlend mode="normal" in2="effect1_backgroundBlur" result="effect2_dropShadow"/>
<feBlend mode="normal" in="SourceGraphic" in2="effect2_dropShadow" result="shape"/>
</filter>
<linearGradient id="paint0_linear" x1="49.7943" y1="8.58739" x2="12.6259" y2="54.3355" gradientUnits="userSpaceOnUse">
<stop stop-color="white" stop-opacity="0.25"/>
<stop offset="1" stop-color="white" stop-opacity="0"/>
</linearGradient>
<linearGradient id="paint1_linear" x1="14.655" y1="25.0214" x2="28.3008" y2="26.2538" gradientUnits="userSpaceOnUse">
<stop stop-color="white"/>
<stop offset="1" stop-color="white" stop-opacity="0.2"/>
</linearGradient>
<linearGradient id="paint2_linear" x1="24.7885" y1="25.7112" x2="14.3146" y2="25.8713" gradientUnits="userSpaceOnUse">
<stop stop-color="white"/>
<stop offset="1" stop-color="white" stop-opacity="0"/>
</linearGradient>
</defs>
</svg>

